<?xml version="1.0" encoding="UTF-8"?>
<svg id="Layer_2" data-name="Layer 2" xmlns="http://www.w3.org/2000/svg" viewBox="0 0 448.58 447.42">
  <defs>
    <style>
      .cls-1 {
        fill: #fff;
      }

      .cls-2 {
        fill: #fafafa;
      }

      .cls-3 {
        opacity: .6;
      }

      .cls-4 {
        fill: #f5f5f5;
      }

      .cls-5 {
        fill: #5082ff;
      }

      .cls-6 {
        fill: #455a64;
      }

      .cls-7 {
        opacity: .2;
      }

      .cls-8 {
        fill: #e0e0e0;
      }

      .cls-9 {
        fill: #97b5ff;
      }

      .cls-10 {
        fill: #eb996e;
      }

      .cls-11 {
        opacity: .3;
      }

      .cls-12 {
        fill: #ffbe9d;
      }

      .cls-13 {
        fill: #ebebeb;
      }

      .cls-14 {
        fill: #263238;
      }
    </style>
  </defs>
  <g id="Background_Complete" data-name="Background Complete">
    <g>
      <polygon class="cls-8" points="429.88 12.52 429.88 93.48 313.6 93.48 309.41 13.09 429.88 12.52"/>
      <g>
        <rect class="cls-1" x="327.44" y="-4.94" width="80.23" height="116.28" transform="translate(314.35 420.75) rotate(-90)"/>
        <path class="cls-8" d="m426.24,93.87h-117.39V12.54h117.39v81.33Zm-116.28-1.1h115.18V13.64h-115.18v79.12Z"/>
      </g>
      <g>
        <rect class="cls-1" x="322" y="23.06" width="91.09" height="60.29"/>
        <path class="cls-8" d="m413.1,23.06s-.16.01-.45.02c-.31,0-.74,0-1.3.02-1.15,0-2.83.02-5,.03-4.38.02-10.74.04-18.77.07-16.06.03-38.8.08-65.57.13l.26-.26c0,18.42.02,38.83.02,60.28h0s-.29-.28-.29-.28c34.36.02,66.05.04,91.09.06l-.23.23c.05-18.35.09-33.39.12-43.87.03-5.24.04-9.33.06-12.13.01-1.39.02-2.45.03-3.19,0-.72.02-1.11.02-1.11,0,0,.02.35.02,1.06,0,.73.01,1.78.03,3.14.01,2.79.03,6.87.06,12.08.03,10.51.07,25.6.12,44.01v.23s-.23,0-.23,0c-25.05.02-56.73.04-91.09.06h-.29s0-.29,0-.29h0c0-21.46.02-41.87.02-60.29v-.26s.26,0,.26,0c26.84.05,49.64.1,65.75.13,8.01.03,14.35.05,18.71.07,2.15.01,3.81.02,4.95.03.55,0,.96.01,1.27.02.28,0,.42.02.42.02Z"/>
      </g>
      <path class="cls-8" d="m309.41,12.86c.05-.06.81.44,2,1.29,1.19.86,2.81,2.08,4.56,3.48,1.75,1.4,3.29,2.72,4.37,3.72,1.08.99,1.72,1.65,1.67,1.7-.11.12-2.9-2.18-6.4-4.97-3.49-2.78-6.3-5.09-6.2-5.22Z"/>
      <path class="cls-8" d="m425.69,13.09c.1.12-2.64,2.46-6.12,5.21-3.48,2.75-6.38,4.88-6.48,4.76-.1-.12,2.64-2.46,6.12-5.21,3.48-2.75,6.38-4.88,6.48-4.76Z"/>
      <g>
        <path class="cls-1" d="m425.6,93.33c-4.32-3.5-8.64-7.01-12.97-10.51"/>
        <path class="cls-8" d="m412.63,82.82c.1-.12,3.08,2.13,6.66,5.03,3.58,2.9,6.4,5.35,6.3,5.48-.1.12-3.08-2.13-6.66-5.03-3.58-2.9-6.4-5.35-6.3-5.48Z"/>
      </g>
      <path class="cls-8" d="m309.41,93.31c-.1-.12,2.61-2.43,6.05-5.15,3.44-2.72,6.31-4.83,6.41-4.7.1.12-2.61,2.43-6.05,5.16-3.44,2.72-6.31,4.83-6.41,4.7Z"/>
      <rect class="cls-8" x="359.06" y="23.27" width="20.19" height="57.32" transform="translate(317.22 421.09) rotate(-90)"/>
    </g>
    <g>
      <rect class="cls-8" x="345.49" y="147.17" width="103.1" height="299.25" transform="translate(794.07 593.59) rotate(180)"/>
      <rect class="cls-4" x="290.15" y="147.17" width="112.88" height="299.25" transform="translate(693.18 593.59) rotate(180)"/>
      <g>
        <path class="cls-8" d="m329.29,372.65h30.16c1.19,0,2.15.96,2.15,2.15v1.79h-34.46v-1.79c0-1.19.96-2.15,2.15-2.15Z" transform="translate(688.74 749.24) rotate(180)"/>
        <path class="cls-8" d="m295.13,372.65s-.02.36-.02,1.08c0,.74-.01,1.81-.02,3.21-.01,2.85-.03,7.01-.06,12.35-.03,10.75-.07,26.21-.12,45.15v.23s.23,0,.23,0c27.28.02,62.39.04,100.59.06h.34v-.29c0-21.86-.02-42.72-.02-61.69v-.27s-.27,0-.27,0c-29.57.03-54.76.05-72.57.06-8.86.02-15.89.04-20.72.05-2.39.01-4.22.02-5.49.03-.61,0-1.07.01-1.4.01-.31,0-.47.02-.47.02,0,0,.17.01.5.02.34,0,.81,0,1.43.02,1.28,0,3.13.02,5.54.04,4.84.02,11.89.05,20.78.09,17.77.05,42.89.12,72.4.2l-.27-.27c0,18.98-.01,39.83-.02,61.69l.29-.29h-.05c-38.2.02-73.32.05-100.59.06l.23.23c-.05-18.88-.09-34.29-.12-45.01-.02-5.36-.04-9.54-.06-12.4-.01-1.42-.02-2.5-.02-3.25,0-.74-.02-1.13-.02-1.13Z"/>
        <rect class="cls-8" x="328.49" y="387.74" width="29.95" height="8.09" transform="translate(686.94 783.57) rotate(180)"/>
      </g>
      <g>
        <path class="cls-8" d="m330.66,300.64h30.16c1.19,0,2.15.96,2.15,2.15v1.79h-34.46v-1.79c0-1.19.96-2.15,2.15-2.15Z" transform="translate(691.47 605.22) rotate(180)"/>
        <path class="cls-8" d="m295.41,300.64s-.02.36-.02,1.08c0,.74-.01,1.81-.03,3.21-.01,2.85-.03,7.01-.06,12.35-.03,10.75-.07,26.21-.12,45.15v.23s.23,0,.23,0c27.28.02,62.39.04,100.59.06h.34v-.29c0-21.86-.02-42.72-.02-61.69v-.27s-.27,0-.27,0c-29.57.03-54.76.05-72.57.06-8.86.02-15.89.04-20.72.05-2.39.01-4.22.02-5.49.03-.61,0-1.07.01-1.4.01-.31,0-.47.02-.47.02,0,0,.17.01.5.02.34,0,.81,0,1.43.02,1.28,0,3.13.02,5.54.04,4.84.02,11.89.05,20.78.09,17.77.05,42.89.12,72.4.2l-.27-.27c0,18.98-.01,39.83-.02,61.69l.29-.29h-.05c-38.2.02-73.32.05-100.59.06l.23.23c-.05-18.88-.09-34.29-.12-45.01-.02-5.36-.04-9.54-.06-12.4-.01-1.42-.02-2.5-.02-3.25,0-.74-.02-1.13-.02-1.13Z"/>
        <rect class="cls-8" x="330.76" y="315.25" width="29.95" height="8.09" transform="translate(691.47 638.6) rotate(180)"/>
      </g>
      <g>
        <path class="cls-8" d="m329.34,155.33h30.16c1.19,0,2.15.96,2.15,2.15v1.79h-34.46v-1.79c0-1.19.96-2.15,2.15-2.15Z" transform="translate(688.84 314.6) rotate(180)"/>
        <path class="cls-8" d="m295.19,155.33s-.02.36-.02,1.08c0,.74-.01,1.81-.03,3.21-.01,2.85-.03,7.01-.06,12.35-.03,10.75-.07,26.21-.12,45.15v.23s.23,0,.23,0c27.28.02,62.39.04,100.59.06h.34v-.29c0-21.86-.02-42.72-.02-61.69v-.27s-.27,0-.27,0c-29.57.03-54.76.05-72.57.06-8.86.02-15.89.04-20.72.05-2.39.01-4.22.02-5.49.03-.61,0-1.07.01-1.4.01-.31,0-.47.02-.47.02,0,0,.17.01.5.02.34,0,.81,0,1.43.02,1.28,0,3.13.02,5.54.04,4.84.02,11.89.05,20.78.09,17.77.05,42.89.12,72.4.2l-.27-.27c0,18.98-.01,39.83-.02,61.69l.29-.29h-.05c-38.2.02-73.32.05-100.59.06l.23.23c-.05-18.88-.09-34.29-.12-45.01-.02-5.36-.04-9.54-.06-12.4-.01-1.41-.02-2.5-.03-3.25,0-.74-.02-1.13-.02-1.13Z"/>
        <rect class="cls-8" x="329.98" y="168.49" width="29.95" height="8.09" transform="translate(689.92 345.07) rotate(180)"/>
      </g>
      <g>
        <path class="cls-8" d="m329.34,227.95h30.16c1.19,0,2.15.96,2.15,2.15v1.79h-34.46v-1.79c0-1.19.96-2.15,2.15-2.15Z" transform="translate(688.84 459.84) rotate(180)"/>
        <path class="cls-8" d="m295.19,227.95s-.02.36-.02,1.08c0,.74-.01,1.81-.03,3.21-.01,2.85-.03,7.01-.06,12.35-.03,10.75-.07,26.21-.12,45.15v.23s.23,0,.23,0c27.28.02,62.39.04,100.59.06h.34v-.29c0-21.86-.02-42.72-.02-61.69v-.27s-.27,0-.27,0c-29.57.03-54.76.05-72.57.06-8.86.02-15.89.04-20.72.05-2.39.01-4.22.02-5.49.03-.61,0-1.07.01-1.4.01-.31,0-.47.02-.47.02,0,0,.17.01.5.02.34,0,.81,0,1.43.02,1.28,0,3.13.02,5.54.04,4.84.02,11.89.05,20.78.09,17.77.05,42.89.12,72.4.2l-.27-.27c0,18.98-.01,39.83-.02,61.69l.29-.29h-.05c-38.2.02-73.32.05-100.59.06l.23.23c-.05-18.88-.09-34.29-.12-45.01-.02-5.36-.04-9.54-.06-12.4-.01-1.42-.02-2.5-.03-3.25,0-.74-.02-1.13-.02-1.13Z"/>
        <rect class="cls-8" x="329.98" y="241.11" width="29.95" height="8.09" transform="translate(689.92 490.3) rotate(180)"/>
      </g>
    </g>
    <g>
      <g>
        <rect class="cls-2" x="23.35" y="10.5" width="108.09" height="96.7"/>
        <path class="cls-8" d="m131.44,107.2s-.02-.62-.03-1.79c0-1.19-.02-2.92-.03-5.18-.01-4.54-.04-11.18-.06-19.63-.03-16.9-.07-41.04-.13-70.1l.24.24c-31.13.01-68.28.03-108.08.04h0l.29-.29c-.01,35.18-.02,68.29-.03,96.7l-.25-.25c32.24.05,59.23.1,78.18.13,9.48.03,16.94.05,22.05.07,2.55.01,4.5.02,5.84.03.65,0,1.15.01,1.51.01.34,0,.52.01.52.01,0,0-.16,0-.49.01-.35,0-.84,0-1.48.01-1.32,0-3.26.02-5.79.03-5.1.02-12.54.04-21.99.07-18.98.03-46.03.08-78.34.13h-.25s0-.25,0-.25c-.01-28.41-.02-61.52-.03-96.7v-.29h.3c39.8.02,76.95.03,108.08.04h.25v.25c-.05,29.12-.1,53.32-.13,70.25-.03,8.43-.05,15.05-.06,19.57-.01,2.24-.02,3.96-.03,5.13,0,1.16-.03,1.74-.03,1.74Z"/>
      </g>
      <path class="cls-8" d="m64.79,27.68c0,.16-5.69.29-12.71.29s-12.71-.13-12.71-.29,5.69-.29,12.71-.29,12.71.13,12.71.29Z"/>
      <path class="cls-8" d="m110.59,34.95c0,.16-15.63.29-34.91.29s-34.91-.13-34.91-.29,15.63-.29,34.91-.29,34.91.13,34.91.29Z"/>
      <rect class="cls-8" x="39.57" y="47.24" width="4.55" height="4.55"/>
      <rect class="cls-8" x="50.77" y="47.24" width="4.55" height="4.55"/>
      <rect class="cls-8" x="62.19" y="47.04" width="4.55" height="4.55"/>
      <rect class="cls-8" x="73.19" y="47.24" width="4.55" height="4.55"/>
      <rect class="cls-8" x="84.4" y="47.24" width="4.55" height="4.55"/>
      <rect class="cls-8" x="95.61" y="47.24" width="4.55" height="4.55"/>
      <rect class="cls-13" x="106.82" y="47.24" width="4.55" height="4.55"/>
      <rect class="cls-13" x="39.57" y="56.93" width="4.55" height="4.55"/>
      <rect class="cls-8" x="50.77" y="56.93" width="4.55" height="4.55"/>
      <rect class="cls-13" x="61.98" y="56.93" width="4.55" height="4.55"/>
      <rect class="cls-8" x="73.19" y="56.93" width="4.55" height="4.55"/>
      <rect class="cls-8" x="84.4" y="56.93" width="4.55" height="4.55"/>
      <rect class="cls-8" x="95.82" y="56.72" width="4.55" height="4.55"/>
      <rect class="cls-8" x="106.82" y="56.93" width="4.55" height="4.55"/>
      <rect class="cls-8" x="39.57" y="66.61" width="4.55" height="4.55"/>
      <rect class="cls-8" x="50.98" y="66.4" width="4.55" height="4.55"/>
      <rect class="cls-8" x="61.98" y="66.61" width="4.55" height="4.55"/>
      <rect class="cls-13" x="73.19" y="66.61" width="4.55" height="4.55"/>
      <rect class="cls-8" x="84.4" y="66.61" width="4.55" height="4.55"/>
      <rect class="cls-8" x="95.61" y="66.61" width="4.55" height="4.55"/>
      <rect class="cls-8" x="106.82" y="66.61" width="4.55" height="4.55"/>
      <rect class="cls-8" x="39.57" y="76.29" width="4.55" height="4.55"/>
      <rect class="cls-8" x="50.77" y="76.29" width="4.55" height="4.55"/>
      <rect class="cls-8" x="61.98" y="76.29" width="4.55" height="4.55"/>
      <rect class="cls-8" x="73.4" y="76.08" width="4.55" height="4.55"/>
      <rect class="cls-8" x="84.4" y="76.29" width="4.55" height="4.55"/>
      <rect class="cls-13" x="95.61" y="76.29" width="4.55" height="4.55"/>
      <rect class="cls-8" x="106.82" y="76.29" width="4.55" height="4.55"/>
      <rect class="cls-8" x="39.57" y="85.97" width="4.55" height="4.55"/>
      <rect class="cls-13" x="50.77" y="85.97" width="4.55" height="4.55"/>
      <rect class="cls-8" x="61.98" y="85.97" width="4.55" height="4.55"/>
      <rect class="cls-8" x="73.19" y="85.97" width="4.55" height="4.55"/>
      <rect class="cls-8" x="84.4" y="85.97" width="4.55" height="4.55"/>
      <rect class="cls-8" x="95.82" y="85.76" width="4.55" height="4.55"/>
      <rect class="cls-8" x="106.82" y="85.97" width="4.55" height="4.55"/>
    </g>
    <g>
      <rect class="cls-13" x="188.47" y="160.67" width="39.83" height="26.85" transform="translate(-47.97 84.56) rotate(-20.63)"/>
      <path class="cls-8" d="m222.53,154.77s-.07.17-.22.47c-.18.33-.41.76-.7,1.3-.64,1.16-1.53,2.77-2.62,4.75-2.26,4.03-5.35,9.54-8.78,15.65l-.07.13-.14-.05c-.11-.03-.22-.07-.34-.11-6.73-2.21-12.83-4.2-17.28-5.66-2.18-.73-3.95-1.33-5.22-1.76-.59-.21-1.06-.37-1.41-.49-.32-.12-.49-.18-.49-.2,0-.01.18.03.51.13.36.11.84.25,1.44.43,1.28.4,3.07.96,5.26,1.65,4.46,1.43,10.57,3.4,17.32,5.56.12.04.23.08.34.11l-.21.08c3.46-6.09,6.59-11.58,8.87-15.6,1.13-1.96,2.06-3.55,2.72-4.7.31-.53.56-.95.75-1.27.18-.29.27-.44.28-.43Z"/>
      <path class="cls-8" d="m194.71,193.93c-.09-.03,1.41-4.53,3.37-10.05,1.95-5.52,3.61-9.96,3.71-9.93.09.03-1.41,4.53-3.37,10.05-1.95,5.52-3.61,9.96-3.71,9.93Z"/>
      <path class="cls-8" d="m214.05,168.97c.05-.09,4.11,2.29,9.06,5.31,4.95,3.02,8.93,5.53,8.87,5.62-.05.09-4.11-2.29-9.06-5.31-4.95-3.02-8.92-5.53-8.87-5.62Z"/>
    </g>
    <g>
      <path class="cls-8" d="m270.57,75.17c.96-.58,1.99-1.02,3.05-1.33l.63-3.02,5.1-.09.73,3c1.07.26,2.11.67,3.1,1.22l2.58-1.69,3.67,3.54-1.6,2.64c.58.96,1.02,1.99,1.33,3.05l3.02.63.09,5.1-3,.73c-.26,1.07-.67,2.11-1.22,3.09l1.69,2.58-3.54,3.67-2.64-1.6c-.96.58-1.99,1.02-3.05,1.33l-.63,3.02-5.1.09-.73-3c-1.07-.26-2.11-.67-3.1-1.22l-2.58,1.69-3.67-3.54,1.6-2.64c-.58-.96-1.03-1.99-1.33-3.05l-3.02-.63-.09-5.1,3-.73c.26-1.07.67-2.11,1.22-3.09l-1.69-2.58,3.54-3.67,2.64,1.6h0Zm2.72,6.8c-2.1,2.17-2.04,5.64.14,7.74,2.17,2.1,5.64,2.04,7.74-.14s2.04-5.64-.14-7.74-5.64-2.04-7.74.14Z"/>
      <path class="cls-8" d="m273.29,81.97s.29-.4,1.02-.89c.72-.48,1.98-1.01,3.57-.84.78.09,1.64.34,2.43.86.77.52,1.51,1.25,1.96,2.21.24.47.41.99.5,1.54.1.54.11,1.12.03,1.68-.14,1.14-.68,2.27-1.52,3.16-.86.87-1.96,1.45-3.1,1.63-.57.1-1.14.11-1.69.03-.55-.07-1.08-.22-1.55-.44-.97-.42-1.73-1.13-2.28-1.88-.55-.76-.83-1.61-.95-2.4-.22-1.59.26-2.86.72-3.6.46-.75.86-1.05.86-1.05.03.03-.33.36-.75,1.11-.41.74-.85,1.98-.61,3.5.13.75.41,1.56.94,2.28.53.71,1.26,1.38,2.18,1.77.45.21.96.35,1.47.41.52.07,1.06.06,1.59-.03,1.08-.17,2.12-.72,2.93-1.55.79-.84,1.31-1.9,1.44-2.98.08-.54.07-1.08-.02-1.59-.08-.52-.24-1.01-.46-1.46-.42-.91-1.11-1.62-1.85-2.12-.74-.5-1.56-.76-2.31-.86-1.53-.19-2.76.29-3.48.73-.74.45-1.06.82-1.08.79Z"/>
      <path class="cls-8" d="m270.57,75.17s-.06-.03-.17-.09c-.12-.07-.29-.17-.51-.29-.46-.27-1.12-.66-1.99-1.17h.06c-.9.94-2.09,2.18-3.52,3.68v-.1c.52.78,1.1,1.64,1.71,2.57l.03.05-.03.05c-.5.91-.92,1.94-1.2,3.07v.06s-.08.02-.08.02c-.93.23-1.94.48-2.99.74l.09-.11c.03,1.61.07,3.31.1,5.1l-.1-.12c.93.19,1.96.4,3.02.62l.08.02.02.08c.28.98.72,2.03,1.32,3.02l.04.07-.04.07c-.49.82-1.04,1.72-1.59,2.64l-.02-.17c1.15,1.11,2.4,2.31,3.67,3.54l-.18-.02c.8-.53,1.68-1.11,2.58-1.69l.08-.05.08.04c.9.5,1.95.93,3.06,1.2l.09.02.02.09c.23.94.48,1.96.74,2.99l-.15-.12c1.62-.03,3.35-.06,5.1-.09l-.15.12c.2-.95.41-1.98.63-3.02l.02-.09.09-.03c1-.28,2.05-.72,3.01-1.31h0s.08-.05.08-.05l.08.05c.88.54,1.76,1.07,2.64,1.6l-.19.03c1.2-1.24,2.38-2.46,3.54-3.67l-.02.19c-.57-.87-1.13-1.73-1.69-2.58l-.05-.08.05-.08c.54-.97.94-2,1.2-3.06l.02-.09.09-.02c1.01-.25,2.01-.49,3-.73l-.11.15c-.03-1.74-.06-3.44-.08-5.1l.11.14c-1.02-.21-2.03-.43-3.02-.63l-.08-.02-.02-.08c-.31-1.08-.75-2.1-1.31-3.02l-.04-.07.04-.07c.55-.9,1.08-1.78,1.6-2.63l.02.16c-1.29-1.25-2.5-2.43-3.66-3.55h.15c-.91.61-1.76,1.16-2.58,1.7l-.06.04-.06-.03c-1.03-.57-2.06-.96-3.07-1.22l-.06-.02v-.06c-.28-1.09-.51-2.07-.74-3l.09.07c-1.98.03-3.66.05-5.1.07l.07-.06c-.26,1.2-.47,2.19-.65,3.02v.03s-.04,0-.04,0c-1.08.3-1.84.65-2.33.9-.24.12-.42.22-.55.29-.12.07-.18.1-.18.09,0,0,.06-.04.17-.12.12-.07.29-.18.54-.31.49-.26,1.24-.63,2.33-.95l-.04.04c.17-.82.37-1.82.61-3.02v-.05s.07,0,.07,0c1.44-.03,3.12-.07,5.1-.11h.07s.02.07.02.07c.23.93.47,1.91.74,2.99l-.08-.08c1.03.25,2.08.64,3.13,1.22h-.12c.82-.54,1.67-1.1,2.57-1.69l.08-.05.07.07c1.16,1.12,2.38,2.29,3.68,3.54l.07.07-.05.09c-.52.86-1.05,1.73-1.59,2.64v-.14c.57.94,1.03,1.98,1.34,3.08l-.11-.1c.99.2,2,.41,3.02.62l.11.02v.12c.03,1.66.06,3.36.1,5.1v.12s-.11.03-.11.03c-.98.24-1.98.49-2.99.74l.11-.11c-.27,1.08-.68,2.14-1.23,3.13v-.16c.55.85,1.12,1.71,1.69,2.58l.07.1-.09.09c-1.16,1.21-2.35,2.43-3.54,3.67l-.09.09-.11-.07c-.87-.53-1.75-1.06-2.64-1.6h.16s0,0,0,0c-.99.6-2.06,1.05-3.09,1.34l.11-.12c-.22,1.04-.43,2.07-.63,3.02l-.03.12h-.12c-1.75.03-3.49.06-5.1.09h-.12s-.03-.12-.03-.12c-.25-1.03-.5-2.06-.73-3l.11.11c-1.13-.28-2.21-.72-3.13-1.23h.15c-.89.58-1.78,1.16-2.58,1.68l-.1.06-.08-.08c-1.27-1.23-2.51-2.43-3.67-3.55l-.08-.08.06-.1c.56-.92,1.11-1.82,1.6-2.63v.14c-.61-1.01-1.05-2.08-1.33-3.09l.1.09c-1.05-.22-2.08-.44-3.02-.63l-.1-.02v-.1c-.03-1.79-.06-3.49-.08-5.1v-.09s.09-.02.09-.02c1.05-.25,2.06-.5,3-.73l-.08.08c.29-1.15.72-2.2,1.24-3.11v.1c-.6-.93-1.17-1.8-1.68-2.58l-.03-.05.04-.05c1.45-1.49,2.65-2.72,3.56-3.65l.03-.03.03.02c.84.52,1.49.93,1.94,1.21.21.14.38.24.5.32.11.07.17.11.17.12Z"/>
    </g>
    <g>
      <path class="cls-4" d="m23.3,436.25c-1.83-1.57-5.9-6.53-2.76-12.3,1.15-2.12,3.6-3.16,5.81-4.09,2.21-.93,4.54-1.74,6.37-3.3,3.45-2.94,4.41-7.82,6.7-11.74,2.63-4.5,7.55-7.87,12.74-7.64,5.95.27,10.9,5.13,13.15,10.66s2.33,11.68,2.37,17.66c.03,3.31-.12,7.03-2.55,9.26-2.24,2.06-5.61,2.08-8.64,1.99-10.83-.33-21.66-.67-32.49-1"/>
      <path class="cls-8" d="m85.44,346.91H0l15.39,91.77c.67,4.01,3.57,7.1,7.29,8.17.1.03.2.05.3.08.25.06.5.15.76.2.56.12,1.15.18,1.74.2,0,.03,0,.06.01.09l.42-.07h38.08c.72,0,1.42-.07,2.09-.21,4.5-.7,8.1-4.3,8.64-8.97l7.42-63.23.33-2.51h-.04l2.94-25.04.06-.48Zm-16.12,58.54h-8.77l.88-26.63h10.16l-2.28,26.63Zm3.13-26.63h8.39l-3.12,26.63h-7.54l2.28-26.63Zm-25.05,56.16l-.53-23.14h12.63l-.77,23.14h-11.32Zm-13.65-23.14h12.27l.53,23.14h-11l-1.8-23.14Zm.95,23.14h-10.29c-.98-6.25-2.25-14.37-3.63-23.14h12.11l1.8,23.14Zm-1.44-29.52l-2.07-26.63h14.07l.61,26.63h-12.62Zm13.47,0l-.61-26.63h14.48l-.88,26.63h-12.99Zm-.76-33.02l-.57-24.66h16.23l-.82,24.66h-14.84Zm-.85,0h-14.42l-1.92-24.66h15.77l.57,24.66Zm-15.27,0h-15.26c-.54-3.41-1.05-6.63-1.52-9.53-1.59-9.97-2.19-13.72-2.52-15.13h17.38l1.92,24.66Zm.5,6.39l2.07,26.63h-12.62c-.42-2.7-.85-5.44-1.28-8.17-.99-6.29-1.98-12.57-2.91-18.46h14.75Zm-11.41,26.63h-8.24l-4.47-26.63h8.52c1.3,8.23,2.74,17.39,4.2,26.63Zm1,6.39c1.26,8.01,2.49,15.9,3.63,23.14h-7.92l-3.88-23.14h8.18Zm39.65,23.14l.77-23.14h8.43l-1.98,23.14h-7.23Zm2.08-62.54l.82-24.66h11.78l-2.11,24.66h-10.49Zm-51.92-24.66c.34,1.78,1.9,11.49,3.99,24.66H5.14l-4.14-24.66h8.73Zm64.52,87.21h-6.6l1.98-23.14h7.34l-2.71,23.14Zm7.34-62.54h-8.6l2.11-24.66h9.38l-2.89,24.66Z"/>
    </g>
  </g>
  <g id="Floor">
    <path class="cls-14" d="m433.31,446.42c0,.14-91.57.26-204.49.26s-204.51-.12-204.51-.26,91.55-.26,204.51-.26,204.49.12,204.49.26Z"/>
  </g>
  <g id="Plant">
    <path class="cls-6" d="m346.2,218.76s11.81-13.59,16.27-27.19c4.46-13.59,2.34-12.03,2.34-12.03,0,0-6.02,13.21-10.59,19.59-4.57,6.38-12.7,15.74-12.7,15.74l4.68,3.9Z"/>
    <path class="cls-6" d="m343.84,181.65c.38-.66,1.4-.32,1.28.44-.72,4.78-2.28,15.98-2.22,23.25.08,9.44,0,13.09,0,13.09h-4.92s.87-19.52,1.98-25.47c.78-4.17,2.43-8.8,3.87-11.31Z"/>
    <path class="cls-6" d="m341.16,216.84s-3.09-6.51-4.05-14.68c-.4-3.48.32-8.17,1.39-14.44.52-3.04.64-5.35.62-6.95-.01-1.21-1.61-1.61-2.2-.55-.59,1.06-2.31,4.68-2.75,6.94-1.19,6.19-2.54,9.28-1.51,15.15,1.03,5.87,4.84,14.92,4.84,14.92l3.65-.4Z"/>
    <path class="cls-6" d="m336.73,217.24s-12.97-27.87-13.87-32.01-3.96-13.66-4.31-13.12c-.36.54-.9,5.57,1.44,11.33,2.34,5.75,12.32,34.65,12.32,34.65h4.43"/>
    <path class="cls-14" d="m342.58,215.99s.13-.08.36-.25c.23-.17.58-.42,1-.77.86-.68,2.07-1.71,3.49-3.08,2.83-2.72,6.35-6.91,9.41-12.08,3.06-5.16,5.12-10.22,6.42-13.91.65-1.85,1.13-3.37,1.44-4.42.16-.53.27-.94.34-1.22.07-.28.11-.43.1-.43,0,0-.06.14-.15.41-.1.3-.23.7-.39,1.2-.34,1.04-.84,2.55-1.52,4.38-1.35,3.67-3.43,8.69-6.48,13.84-3.04,5.14-6.52,9.33-9.31,12.08-1.39,1.38-2.58,2.43-3.42,3.13-.41.36-.75.62-.97.81-.22.19-.34.29-.33.29Z"/>
    <path class="cls-14" d="m341.16,202.62s.06-.29.12-.82c.06-.58.14-1.33.24-2.23.21-1.89.53-4.49.98-7.34.46-2.86.97-5.43,1.37-7.28.19-.89.35-1.63.47-2.2.11-.52.16-.81.15-.81-.02,0-.11.28-.25.79-.15.51-.34,1.26-.56,2.18-.45,1.85-.99,4.42-1.45,7.28-.46,2.86-.75,5.47-.91,7.37-.08.95-.13,1.71-.15,2.24-.02.53-.03.82,0,.83Z"/>
    <path class="cls-14" d="m338.13,180.01s-.06.12-.15.35c-.1.26-.23.61-.39,1.04-.17.45-.37,1-.56,1.66-.19.65-.44,1.39-.63,2.23-.1.42-.21.86-.32,1.31-.11.46-.19.94-.29,1.43-.21.99-.34,2.06-.5,3.19-.25,2.26-.39,4.76-.31,7.39.11,2.62.42,5.11.84,7.35.24,1.11.44,2.17.73,3.15.13.49.25.96.39,1.41.14.45.28.87.41,1.28.25.82.55,1.54.79,2.18.23.64.47,1.18.67,1.62.19.42.34.75.46,1,.11.23.17.35.18.34s-.04-.13-.13-.37c-.1-.26-.24-.6-.41-1.02-.19-.44-.41-.98-.63-1.63-.22-.64-.51-1.36-.75-2.19-.13-.41-.26-.84-.4-1.28-.14-.45-.24-.92-.37-1.41-.27-.97-.47-2.03-.7-3.13-.4-2.23-.71-4.7-.81-7.31-.08-2.61.05-5.1.29-7.35.15-1.12.27-2.19.47-3.18.09-.49.17-.98.27-1.43.1-.45.21-.89.3-1.31.17-.84.41-1.58.59-2.23.17-.66.35-1.22.51-1.67.14-.44.25-.78.34-1.05.07-.24.11-.37.1-.37Z"/>
    <path class="cls-14" d="m318.7,172.67s0,.04.01.12c.02.1.03.22.06.36.06.32.13.79.26,1.39.25,1.2.67,2.92,1.32,5.02.65,2.09,1.53,4.55,2.58,7.25,1.05,2.7,2.26,5.64,3.41,8.77,1.17,3.12,2.07,6.17,2.92,8.94.84,2.77,1.63,5.25,2.4,7.31.76,2.05,1.49,3.67,2.05,4.77.27.55.5.96.66,1.25.07.13.13.23.18.32.04.07.07.11.07.1,0,0-.01-.04-.05-.12-.04-.09-.09-.2-.16-.33-.14-.29-.36-.71-.61-1.27-.52-1.1-1.23-2.73-1.96-4.79-.74-2.05-1.52-4.54-2.34-7.31-.83-2.77-1.73-5.83-2.9-8.96-1.15-3.14-2.38-6.07-3.44-8.76-1.06-2.69-1.97-5.13-2.63-7.21-.67-2.08-1.12-3.79-1.4-4.98-.14-.59-.23-1.06-.31-1.37-.03-.14-.06-.26-.08-.36-.02-.08-.03-.12-.04-.12Z"/>
    <g>
      <path class="cls-6" d="m358.69,166.51c.82-.81,2.18.04,1.84,1.14-.34,1.12-.86,2.56-1.63,4.19-1.78,3.79-7.02,17.38-9.47,24.85-2.45,7.47-5.91,21.4-5.91,21.4l-5.24-.85s4.79-22.89,9.47-31.13c3.76-6.63,7.52-16.2,10.93-19.59Z"/>
      <path class="cls-14" d="m347.99,201.36s-.11.22-.27.63c-.15.41-.37,1.01-.6,1.76-.48,1.49-1.07,3.58-1.67,5.9-.59,2.32-1.09,4.43-1.43,5.96-.16.72-.29,1.33-.39,1.81-.09.43-.13.67-.11.67.02,0,.09-.23.21-.65.13-.48.29-1.08.48-1.79.4-1.57.93-3.64,1.51-5.93.59-2.31,1.15-4.4,1.59-5.91.21-.71.38-1.31.52-1.78.12-.42.19-.66.17-.66Z"/>
      <path class="cls-14" d="m340.89,217.66s.01-.05.03-.14c.02-.11.04-.24.06-.41.05-.36.1-.9.21-1.59.19-1.38.54-3.36,1.1-5.77.56-2.42,1.37-5.26,2.45-8.36,1.07-3.1,2.42-6.45,3.95-9.92,3.08-6.93,6.16-13.07,8.18-17.62,1.02-2.27,1.81-4.12,2.33-5.41.27-.64.46-1.15.59-1.49.06-.16.11-.29.15-.39.03-.09.05-.13.04-.14,0,0-.03.04-.07.13-.04.1-.1.23-.17.38-.15.36-.37.85-.64,1.47-.55,1.28-1.37,3.11-2.41,5.37-2.07,4.52-5.17,10.65-8.25,17.59-1.53,3.47-2.87,6.84-3.93,9.95-1.07,3.11-1.86,5.97-2.4,8.4-.54,2.43-.85,4.42-1.01,5.8-.09.69-.13,1.23-.16,1.59-.01.17-.02.31-.03.42,0,.09,0,.14,0,.14Z"/>
      <path class="cls-14" d="m338.29,217.24s.08-.31.18-.88c.1-.61.24-1.43.41-2.41.36-2.03.91-4.82,1.7-7.86.78-3.04,1.67-5.75,2.35-7.7.33-.94.61-1.71.82-2.3.2-.54.3-.85.28-.85-.02,0-.15.28-.38.81-.23.53-.54,1.31-.9,2.27-.73,1.93-1.64,4.64-2.43,7.69-.79,3.05-1.32,5.86-1.63,7.9-.15,1.02-.26,1.85-.32,2.42-.06.57-.09.89-.07.89Z"/>
    </g>
    <g class="cls-11">
      <rect class="cls-9" x="327.54" y="216.49" width="20.43" height="24.9" transform="translate(675.52 457.87) rotate(180)"/>
    </g>
    <rect class="cls-5" x="334.06" y="216.49" width="18.13" height="24.9" transform="translate(686.25 457.87) rotate(180)"/>
  </g>
  <g id="Mail">
    <rect class="cls-5" x="129.57" y="16.83" width="39.83" height="26.85" transform="translate(-2.11 47.02) rotate(-17.75)"/>
    <path class="cls-14" d="m164.58,11.67s-.07.16-.24.45c-.19.32-.44.74-.76,1.26-.69,1.12-1.66,2.69-2.85,4.62-2.46,3.91-5.82,9.26-9.55,15.19l-.08.13-.14-.05c-.11-.04-.22-.08-.33-.13-6.62-2.54-12.6-4.84-16.98-6.52-2.14-.84-3.88-1.53-5.13-2.02-.58-.23-1.04-.42-1.39-.57-.32-.13-.48-.21-.48-.22,0-.01.18.04.5.15.36.13.83.29,1.41.5,1.26.46,3.02,1.11,5.17,1.91,4.39,1.66,10.39,3.92,17.02,6.42.11.04.23.09.33.13l-.22.07c3.76-5.91,7.16-11.24,9.64-15.14,1.23-1.9,2.23-3.45,2.95-4.55.34-.51.61-.92.82-1.23.19-.28.29-.42.31-.41Z"/>
    <path class="cls-14" d="m134.83,49.38c-.09-.04,1.64-4.46,3.86-9.87,2.23-5.41,4.11-9.77,4.2-9.73.09.04-1.64,4.46-3.87,9.87-2.23,5.41-4.11,9.77-4.2,9.73Z"/>
    <path class="cls-14" d="m155.4,25.43c.06-.08,3.99,2.49,8.78,5.76,4.8,3.26,8.64,5.97,8.58,6.05-.06.08-3.99-2.49-8.78-5.76-4.79-3.26-8.64-5.97-8.58-6.05Z"/>
  </g>
  <g id="Document">
    <g>
      <path class="cls-9" d="m331.97,66.85l-28.24-11.96c-1.95-.83-2.86-3.08-2.04-5.03l16.56-39.08c.83-1.95,3.08-2.86,5.03-2.04l17.91,7.59,7.81,20.16-12,28.33c-.83,1.95-3.08,2.86-5.03,2.04Z"/>
      <path class="cls-9" d="m341.19,16.33l-4.66,11c-.77,1.81.08,3.91,1.89,4.68l10.58,4.48-7.81-20.16Z"/>
      <g class="cls-7">
        <path class="cls-9" d="m336.26,28.35s-1.27,2.61,1.4,4.77c.1.08.21.16.31.23,1.28.83,9.68,6.3,9.77,6.09.1-.23,1.25-2.96,1.25-2.96l-10.58-4.48s-2.6-1.21-2.16-3.65Z"/>
      </g>
      <g class="cls-11">
        <path class="cls-9" d="m341.19,16.33l-4.66,11c-.77,1.81.08,3.91,1.89,4.68l10.58,4.48-7.81-20.16Z"/>
      </g>
    </g>
    <path class="cls-2" d="m334.35,25.88c-.06.14-3.03-.98-6.64-2.51-3.61-1.53-6.48-2.88-6.42-3.02.06-.14,3.03.98,6.64,2.51,3.61,1.53,6.48,2.88,6.42,3.02Z"/>
    <path class="cls-2" d="m340.15,35.67c-.06.14-4.92-1.78-10.86-4.3-5.94-2.52-10.7-4.67-10.64-4.81.06-.14,4.92,1.78,10.86,4.3,5.94,2.51,10.7,4.67,10.64,4.81Z"/>
    <path class="cls-2" d="m339.89,41.68c-.06.14-5.36-1.97-11.83-4.71-6.47-2.74-11.67-5.08-11.61-5.22.06-.14,5.35,1.97,11.83,4.71,6.47,2.74,11.67,5.08,11.61,5.22Z"/>
    <path class="cls-2" d="m337.81,46.58c-.06.14-5.36-1.97-11.83-4.71-6.47-2.74-11.67-5.08-11.61-5.22.06-.14,5.35,1.97,11.83,4.71,6.47,2.74,11.67,5.08,11.61,5.22Z"/>
    <path class="cls-2" d="m335.74,51.48c-.06.14-5.36-1.97-11.83-4.71-6.47-2.74-11.67-5.08-11.61-5.22.06-.14,5.35,1.97,11.83,4.71,6.47,2.74,11.67,5.08,11.61,5.22Z"/>
    <path class="cls-2" d="m333.66,56.38c-.06.14-5.36-1.97-11.83-4.71-6.47-2.74-11.67-5.08-11.61-5.22.06-.14,5.35,1.97,11.83,4.71,6.47,2.74,11.67,5.08,11.61,5.22Z"/>
  </g>
  <g id="Clock">
    <g>
      <g>
        <circle class="cls-1" cx="237.02" cy="37.8" r="37.35"/>
        <path class="cls-14" d="m274.37,37.8s-.03-.2-.06-.6c-.03-.42-.07-1.01-.12-1.77-.02-.39-.05-.83-.08-1.31-.05-.48-.15-1-.24-1.56-.18-1.13-.35-2.43-.78-3.85-.66-2.88-2.01-6.29-4.14-9.9-2.15-3.6-5.24-7.35-9.46-10.54-4.2-3.16-9.51-5.85-15.63-6.93-1.54-.22-3.09-.53-4.69-.54-.8-.03-1.61-.11-2.42-.09-.81.04-1.63.08-2.46.13-.41.03-.83.03-1.24.08l-1.24.19c-.83.14-1.67.23-2.5.41-1.64.45-3.33.78-4.95,1.45-1.66.53-3.23,1.36-4.84,2.13-.78.42-1.53.92-2.31,1.38-.38.24-.78.45-1.15.72l-1.09.82c-1.51,1.04-2.83,2.33-4.21,3.58-1.25,1.38-2.56,2.73-3.63,4.3l-.85,1.14-.75,1.22-.75,1.23c-.26.4-.5.82-.69,1.26-.42.87-.84,1.74-1.26,2.62-.33.91-.67,1.83-1.01,2.75-1.21,3.72-1.86,7.68-1.91,11.7.05,4.03.7,7.98,1.91,11.71.34.92.67,1.84,1.01,2.75.42.88.84,1.75,1.26,2.62.19.44.43.86.69,1.27l.75,1.23.75,1.22.85,1.14c1.08,1.57,2.39,2.92,3.64,4.3,1.38,1.25,2.7,2.54,4.21,3.58l1.09.82c.36.27.77.48,1.15.72.78.46,1.53.96,2.31,1.38,1.61.77,3.17,1.59,4.84,2.13,1.61.67,3.31,1.01,4.95,1.45.83.17,1.67.27,2.5.41l1.24.19c.41.05.83.05,1.24.08.82.04,1.64.09,2.46.13.81.01,1.62-.07,2.42-.09,1.61,0,3.16-.33,4.69-.54,6.12-1.09,11.43-3.78,15.63-6.93,4.22-3.19,7.31-6.95,9.46-10.54,2.13-3.61,3.48-7.02,4.14-9.9.43-1.42.6-2.73.78-3.85.08-.56.19-1.08.24-1.56.03-.48.05-.91.08-1.3.05-.77.09-1.35.12-1.77.03-.4.06-.6.06-.6,0,0,0,.2,0,.61-.02.42-.04,1.01-.06,1.78-.02.39-.03.83-.05,1.31-.04.48-.14,1-.21,1.57-.16,1.13-.32,2.45-.73,3.88-.63,2.91-1.96,6.35-4.08,10-2.14,3.64-5.24,7.45-9.48,10.69-4.23,3.21-9.58,5.95-15.78,7.07-1.55.23-3.12.55-4.75.56-.81.03-1.63.11-2.45.1-.82-.04-1.65-.08-2.49-.12-.42-.03-.84-.02-1.26-.08l-1.25-.19c-.84-.14-1.69-.23-2.53-.41-1.66-.45-3.38-.78-5.02-1.46-1.69-.54-3.28-1.37-4.91-2.15-.79-.43-1.56-.93-2.34-1.39-.38-.25-.8-.46-1.16-.73l-1.11-.83c-1.53-1.05-2.87-2.36-4.27-3.62-1.27-1.4-2.6-2.77-3.69-4.36l-.87-1.16-.76-1.24-.76-1.25c-.26-.41-.5-.83-.7-1.28-.42-.88-.85-1.76-1.28-2.65-.34-.93-.68-1.85-1.02-2.79-1.23-3.78-1.89-7.79-1.94-11.87.05-4.08.71-8.09,1.94-11.86.34-.93.68-1.86,1.02-2.78.43-.89.85-1.77,1.28-2.65.2-.45.44-.87.7-1.28l.76-1.24.76-1.24.87-1.16c1.09-1.59,2.42-2.96,3.69-4.35,1.4-1.26,2.74-2.57,4.27-3.62l1.11-.83c.37-.28.78-.49,1.16-.73.79-.47,1.55-.97,2.34-1.39,1.63-.78,3.22-1.61,4.91-2.15,1.64-.68,3.35-1.01,5.01-1.46.84-.17,1.69-.27,2.53-.41l1.25-.19c.42-.05.84-.05,1.26-.08.83-.04,1.66-.08,2.49-.12.82-.01,1.64.07,2.45.1,1.63.01,3.2.34,4.75.56,6.19,1.12,11.55,3.86,15.78,7.06,4.24,3.24,7.35,7.05,9.48,10.69,2.12,3.65,3.45,7.1,4.08,10,.42,1.43.57,2.75.73,3.88.08.57.17,1.09.21,1.57.02.48.04.92.05,1.31.03.77.05,1.36.06,1.78.01.4,0,.61,0,.61Z"/>
      </g>
      <path class="cls-14" d="m254.74,36.74s-.53.19-1.51.43c-1.07.26-2.47.59-4.17,1-3.53.82-8.43,1.93-13.91,3.13l-.32.07v-.32c0-.34,0-.72,0-1.09,0-5.85.03-11.15.08-14.98.03-1.85.06-3.38.08-4.54.03-1.07.07-1.66.1-1.66s.07.59.1,1.66c.02,1.16.05,2.69.08,4.54.05,3.83.08,9.13.08,14.98,0,.37,0,.74,0,1.09l-.32-.25c5.47-1.2,10.39-2.24,13.94-2.97,1.71-.34,3.12-.62,4.2-.84.99-.19,1.54-.27,1.55-.24Z"/>
      <path class="cls-14" d="m277.05,53.19s.04-.22.16-.61c.11-.39.34-.96.54-1.71.46-1.48,1.03-3.66,1.46-6.4.88-5.44.88-13.34-1.97-21.34-2.86-8-7.86-14.11-11.99-17.77-2.07-1.85-3.89-3.18-5.18-4.03-.64-.45-1.16-.74-1.5-.98-.34-.22-.52-.35-.51-.36,0-.02.2.08.56.27.36.2.9.47,1.56.9,1.34.81,3.2,2.1,5.32,3.93,4.23,3.61,9.34,9.76,12.23,17.87,2.89,8.1,2.83,16.1,1.85,21.57-.48,2.76-1.11,4.94-1.63,6.41-.24.74-.49,1.3-.64,1.68-.16.38-.25.58-.26.57Z"/>
      <path class="cls-14" d="m284.21,34.81c-.08,0-.13-1.49-.44-3.87-.3-2.38-.91-5.64-2.1-9.1-1.18-3.46-2.7-6.41-3.92-8.48-1.22-2.06-2.1-3.27-2.03-3.32.03-.02.28.26.7.79.42.53.99,1.32,1.65,2.34,1.31,2.03,2.91,4.99,4.1,8.5,1.2,3.5,1.76,6.82,1.97,9.23.11,1.2.14,2.18.14,2.86,0,.68-.03,1.05-.07,1.05Z"/>
      <path class="cls-14" d="m199.74,16.16s-.07.21-.26.57c-.18.37-.48.89-.81,1.6-.69,1.39-1.6,3.45-2.46,6.09-1.74,5.23-2.99,13.03-1.44,21.38,1.55,8.35,5.51,15.18,9.01,19.45,1.75,2.15,3.33,3.76,4.48,4.81.56.54,1.03.92,1.33,1.2.3.28.46.43.45.44-.01.01-.19-.11-.51-.36-.32-.26-.82-.61-1.4-1.13-1.19-1.01-2.83-2.58-4.63-4.72-3.6-4.24-7.67-11.13-9.24-19.58-1.57-8.46-.23-16.34,1.61-21.59.91-2.65,1.88-4.7,2.63-6.07.35-.7.69-1.2.9-1.56.21-.35.33-.53.35-.52Z"/>
      <path class="cls-14" d="m189.75,33.18c.08.01-.1,1.49-.18,3.89-.08,2.39,0,5.72.63,9.32.61,3.6,1.65,6.76,2.52,8.99.88,2.23,1.55,3.56,1.47,3.6-.03.02-.24-.3-.56-.89-.33-.59-.77-1.46-1.25-2.57-.97-2.21-2.08-5.39-2.69-9.04-.63-3.65-.65-7.01-.48-9.42.09-1.21.21-2.18.32-2.84.11-.67.2-1.03.23-1.03Z"/>
      <g>
        <path class="cls-14" d="m267.94,43.96c-1.41-.29-2.55-.53-2.55-.55,0-.01,1.15.21,2.56.5,1.41.29,2.55.53,2.55.55,0,.01-1.15-.21-2.56-.5Z"/>
        <path class="cls-14" d="m264.32,53.38c-1.24-.73-2.24-1.33-2.23-1.34s1.02.57,2.26,1.3c1.24.73,2.24,1.33,2.23,1.34,0,.01-1.02-.57-2.26-1.3Z"/>
        <path class="cls-14" d="m257.83,61.09c-.93-1.09-1.68-1.99-1.67-2,.01,0,.78.87,1.71,1.96.93,1.09,1.68,1.99,1.67,2-.01,0-.78-.87-1.71-1.96Z"/>
        <path class="cls-14" d="m249.19,66.29c-.53-1.34-.95-2.42-.94-2.43.01,0,.45,1.07.98,2.41.53,1.34.95,2.42.94,2.43s-.45-1.07-.98-2.41Z"/>
        <path class="cls-14" d="m239.34,68.41c-.07-1.44-.11-2.6-.09-2.6.01,0,.08,1.16.14,2.6.07,1.44.11,2.6.09,2.6-.01,0-.08-1.16-.14-2.6Z"/>
        <path class="cls-14" d="m229.32,67.2c.4-1.38.74-2.5.75-2.49.01,0-.3,1.13-.7,2.51-.4,1.38-.74,2.5-.75,2.49-.01,0,.3-1.13.7-2.51Z"/>
        <path class="cls-14" d="m220.23,62.81c.83-1.17,1.51-2.12,1.52-2.11.01,0-.65.97-1.48,2.14-.83,1.17-1.51,2.12-1.52,2.11s.65-.97,1.48-2.14Z"/>
        <path class="cls-14" d="m213.08,55.71c1.17-.84,2.12-1.51,2.13-1.5,0,.01-.93.7-2.1,1.54-1.17.84-2.12,1.51-2.13,1.5,0-.01.93-.7,2.1-1.54Z"/>
        <path class="cls-14" d="m208.6,46.68c1.38-.42,2.49-.75,2.5-.74,0,.01-1.11.36-2.48.78-1.38.42-2.49.75-2.5.73,0-.01,1.11-.36,2.48-.78Z"/>
        <path class="cls-14" d="m207.31,36.67c1.44.05,2.6.11,2.6.12,0,.01-1.17-.02-2.6-.07-1.44-.05-2.6-.11-2.6-.12,0-.01,1.17.02,2.6.07Z"/>
        <path class="cls-14" d="m209.34,26.79c1.34.51,2.43.94,2.42.95s-1.1-.39-2.44-.91c-1.34-.51-2.43-.94-2.42-.95,0-.01,1.1.39,2.44.91Z"/>
        <path class="cls-14" d="m214.46,18.1c1.1.92,1.99,1.68,1.98,1.69,0,.01-.91-.73-2.01-1.66-1.1-.92-1.99-1.68-1.98-1.69,0-.01.91.73,2.01,1.65Z"/>
        <path class="cls-14" d="m222.12,11.55c.74,1.23,1.34,2.24,1.32,2.24-.01,0-.62-.99-1.37-2.22-.74-1.23-1.34-2.23-1.32-2.24.01,0,.62.99,1.37,2.22Z"/>
        <path class="cls-14" d="m231.49,7.84c.3,1.41.54,2.55.53,2.55-.01,0-.27-1.13-.57-2.54-.3-1.4-.54-2.55-.53-2.55.01,0,.27,1.13.57,2.54Z"/>
        <path class="cls-14" d="m241.57,7.38c-.17,1.43-.32,2.58-.33,2.58-.01,0,.11-1.16.29-2.59.17-1.43.32-2.58.33-2.58.01,0-.11,1.16-.29,2.59Z"/>
        <path class="cls-14" d="m251.25,10.2c-.62,1.3-1.14,2.34-1.15,2.34-.01,0,.48-1.06,1.11-2.36.62-1.3,1.14-2.34,1.15-2.34.01,0-.48,1.06-1.11,2.36Z"/>
        <path class="cls-14" d="m259.49,16.02c-1.01,1.02-1.84,1.84-1.85,1.83,0,0,.8-.85,1.81-1.87,1.01-1.02,1.84-1.84,1.85-1.83,0,0-.8.85-1.81,1.87Z"/>
        <path class="cls-14" d="m265.39,24.2c-1.29.64-2.34,1.15-2.34,1.14,0-.01,1.03-.54,2.32-1.18,1.29-.64,2.34-1.15,2.34-1.14,0,.01-1.03.54-2.32,1.18Z"/>
        <path class="cls-14" d="m268.32,33.84c-1.43.19-2.58.33-2.59.31,0-.01,1.15-.18,2.58-.36,1.43-.19,2.58-.33,2.58-.31s-1.15.18-2.58.36Z"/>
      </g>
      <path class="cls-14" d="m286.84,30.39c.13.06-.83,2.24-2.14,4.87-.02.04-.04.08-.06.12l-.2.41-.25-.38c-1.58-2.4-2.75-4.39-2.63-4.47.12-.08,1.48,1.79,3.06,4.19l-.45.03s.04-.08.06-.12c1.31-2.62,2.48-4.7,2.6-4.64Z"/>
    </g>
  </g>
  <g id="Speech_Bubble" data-name="Speech Bubble">
    <path class="cls-2" d="m303.8,114.85h-117.53c-5.75,0-10.41,4.66-10.41,10.41s4.66,10.41,10.41,10.41h54.97l12.31,11.73v-11.73h50.25c5.75,0,10.41-4.66,10.41-10.41s-4.66-10.41-10.41-10.41Z"/>
    <path class="cls-14" d="m303.8,114.85s.13,0,.39,0c.26.01.64,0,1.14.09.99.13,2.5.48,4.17,1.53,1.63,1.05,3.45,2.87,4.33,5.62.89,2.68.69,6.32-1.48,9.34-1.06,1.5-2.61,2.78-4.48,3.58-.94.39-1.96.64-3.02.77-1.07.08-2.13.05-3.23.06-4.38,0-9.11.02-14.16.03-10.11.01-21.5.03-33.91.04l.23-.23c0,3.67,0,7.65,0,11.73v.56s-.4-.38-.4-.38c-3.9-3.71-8.05-7.66-12.32-11.72l.17.07c-14.56,0-30.36,0-46.75.01-2.73,0-5.45,0-8.15,0-2.77.02-5.51-1.09-7.46-2.99-1.98-1.89-3.15-4.54-3.25-7.23-.12-2.69.82-5.38,2.55-7.38,1.71-2.01,4.18-3.34,6.76-3.64,1.3-.14,2.55-.08,3.81-.09,1.25,0,2.5,0,3.74,0,4.96,0,9.82,0,14.56,0,18.95.02,36.02.04,50.36.06,14.33.03,25.92.06,33.95.08,4,.02,7.11.04,9.23.05,1.04.01,1.84.02,2.4.03.54,0,.82.03.82.03,0,0-.28.02-.82.03-.56,0-1.36.01-2.4.03-2.13.01-5.23.03-9.23.05-8.03.02-19.63.05-33.95.08-14.34.02-31.41.03-50.36.06-4.74,0-9.6,0-14.56,0-1.24,0-2.49,0-3.74,0-1.25.02-2.53-.05-3.74.09-2.46.29-4.8,1.55-6.43,3.47-1.64,1.91-2.54,4.47-2.42,7.02.09,2.56,1.21,5.08,3.09,6.88,1.86,1.81,4.46,2.86,7.1,2.85,2.7,0,5.42,0,8.15,0,16.39,0,32.19,0,46.75.01h.1l.07.07c4.26,4.06,8.41,8.02,12.3,11.74l-.4.17c0-4.07,0-8.06,0-11.73v-.23s.23,0,.23,0c12.41.01,23.8.03,33.91.04,5.05,0,9.78.02,14.16.03,1.09,0,2.17.03,3.2-.04,1.03-.12,2.02-.36,2.93-.73,1.82-.77,3.34-2.01,4.38-3.47,2.13-2.93,2.35-6.49,1.5-9.12-.84-2.7-2.61-4.51-4.21-5.56-1.63-1.05-3.11-1.43-4.1-1.58-.99-.15-1.52-.13-1.52-.16Z"/>
    <path class="cls-9" d="m237.68,132.62h-51.48c-4.06,0-7.36-3.29-7.36-7.36h0c0-4.06,3.29-7.36,7.36-7.36h51.48c4.06,0,7.36,3.29,7.36,7.36h0c0,4.06-3.29,7.36-7.36,7.36Z"/>
    <path class="cls-14" d="m241.99,104.12l-1.74,5.32h-1.32l-1.17-3.6-1.21,3.6h-1.31l-1.75-5.32h1.28l1.2,3.74,1.25-3.74h1.14l1.22,3.77,1.24-3.77h1.18Z"/>
    <path class="cls-14" d="m242.27,106.77c0-1.58,1.23-2.75,2.91-2.75s2.91,1.16,2.91,2.75-1.24,2.75-2.91,2.75-2.91-1.17-2.91-2.75Zm4.58,0c0-1.01-.71-1.7-1.66-1.7s-1.66.69-1.66,1.7.71,1.7,1.66,1.7,1.66-.69,1.66-1.7Z"/>
    <path class="cls-14" d="m252.41,109.43l-1.03-1.48h-1.13v1.48h-1.23v-5.32h2.3c1.42,0,2.31.74,2.31,1.93,0,.8-.4,1.38-1.09,1.68l1.19,1.71h-1.32Zm-1.15-4.32h-1v1.85h1c.75,0,1.13-.35,1.13-.93s-.38-.93-1.13-.93Z"/>
    <path class="cls-14" d="m256.54,107.34l-.71.74v1.35h-1.22v-5.32h1.22v2.48l2.36-2.48h1.37l-2.2,2.37,2.33,2.95h-1.44l-1.7-2.09Z"/>
    <path class="cls-14" d="m290.33,127.21h-1.49l-.38,1.91h-1.08l.39-1.91h-4.32l.14-.78,4.94-5.09h1.26l-4.73,4.91h2.93l.34-1.69h1.03l-.33,1.69h1.48l-.19.96Z"/>
    <path class="cls-14" d="m293.53,122.31l-.64,2.13h.76c1.99,0,2.89.82,2.89,2.08,0,1.61-1.32,2.69-3.31,2.69-1.18,0-2.18-.37-2.72-.98l.59-.86c.42.49,1.22.84,2.21.84,1.34,0,2.12-.59,2.12-1.58,0-.77-.56-1.23-1.98-1.23h-1.89l1.21-4.07h4.39l-.19.97h-3.43Z"/>
    <path class="cls-14" d="m297.83,123.82c0-1.36.81-2.53,2.12-2.53.96,0,1.57.62,1.57,1.69,0,1.36-.8,2.53-2.12,2.53-.96,0-1.57-.62-1.57-1.69Zm6.9-2.48h.89l-6.8,7.78h-.91l6.82-7.78Zm-3.93,1.69c0-.73-.34-1.12-.9-1.12-.9,0-1.34,1.01-1.34,1.86,0,.73.34,1.12.9,1.12.9,0,1.34-1.01,1.34-1.85Zm1.23,4.47c0-1.36.8-2.53,2.12-2.53.94,0,1.55.62,1.55,1.69,0,1.36-.79,2.53-2.12,2.53-.96,0-1.56-.62-1.56-1.69Zm2.96-.79c0-.73-.34-1.12-.9-1.12-.89,0-1.34,1.01-1.34,1.86,0,.73.36,1.12.9,1.12.9,0,1.34-1.01,1.34-1.86Z"/>
    <polygon class="cls-1" points="188.19 117.9 183.42 132.62 188.19 132.62 192.67 117.9 188.19 117.9"/>
    <polygon class="cls-1" points="199.97 117.9 195.2 132.62 199.97 132.62 204.45 117.9 199.97 117.9"/>
    <polygon class="cls-1" points="211.75 117.9 206.98 132.62 211.75 132.62 216.23 117.9 211.75 117.9"/>
    <polygon class="cls-1" points="223.53 117.9 218.76 132.62 223.53 132.62 228.01 117.9 223.53 117.9"/>
    <polygon class="cls-1" points="235.31 117.9 230.54 132.62 235.31 132.62 239.79 117.9 235.31 117.9"/>
  </g>
  <g id="Character">
    <g>
      <path class="cls-8" d="m56.8,326.11s25.32,11.41,51.7,11.41c24.43,0,50.27-12.3,50.27-12.3l-101.98.89Z"/>
      <rect class="cls-8" x="100.8" y="326.32" width="10.46" height="109.57"/>
      <rect class="cls-8" x="59.61" y="429.47" width="92.84" height="6.42"/>
      <path class="cls-14" d="m70.97,438c0,3.91-3.17,7.09-7.09,7.09s-7.09-3.17-7.09-7.09,3.17-7.09,7.09-7.09,7.09,3.17,7.09,7.09Z"/>
      <path class="cls-14" d="m112.22,438c0,3.91-3.17,7.09-7.09,7.09s-7.09-3.17-7.09-7.09,3.17-7.09,7.09-7.09,7.09,3.17,7.09,7.09Z"/>
      <path class="cls-14" d="m160.01,438c0,3.91-3.17,7.09-7.09,7.09s-7.09-3.17-7.09-7.09,3.17-7.09,7.09-7.09,7.09,3.17,7.09,7.09Z"/>
      <rect class="cls-8" x="94.27" y="365.76" width="14.23" height="5.89"/>
      <rect class="cls-8" x="91.68" y="361.64" width="5.18" height="14.13"/>
    </g>
    <g>
      <path class="cls-6" d="m54.33,159.33h42.45v152.84h-54.05v-141.23c0-6.41,5.2-11.61,11.61-11.61Z"/>
      <path class="cls-14" d="m54.69,309.85c-.14,0-.26-33.16-.26-74.06s.12-74.07.26-74.07.26,33.16.26,74.07-.12,74.06-.26,74.06Z"/>
    </g>
    <path class="cls-6" d="m42.72,311.86h133.81v16.62H50.67c-4.39,0-7.96-3.56-7.96-7.96v-8.66h0Z"/>
    <g>
      <path class="cls-12" d="m118.46,98.9l-5.8,55.29c-.99,9.4-.51,23.42,14.43,24.3h0c13.02-.21,17.56-12.1,18.47-20.88.43-4.16.8-7.63.87-8.06,0,0,14.21.15,16.69-13.67,1.2-6.68,2.54-20.64,3.61-33.29,1.15-13.58-8.34-25.76-21.78-28l-1.34-.22c-14.55-1.56-24.01,9.93-25.16,24.53Z"/>
      <path class="cls-10" d="m146.44,149.55s-8.82-.94-17.15-8.33c0,0,2.72,10.85,16.75,11.9l.4-3.57Z"/>
      <path class="cls-14" d="m142.39,106.1c-.3.26-1.79-1.19-4.12-1.47-2.32-.31-4.18.71-4.4.38-.11-.14.23-.63,1.04-1.1.8-.46,2.11-.85,3.56-.66,1.45.19,2.6.88,3.24,1.53.65.65.83,1.2.68,1.32Z"/>
      <path class="cls-14" d="m142.16,111.46c-.13.99-1.08,1.7-2.12,1.59-1.04-.12-1.78-1.01-1.65-2.01.13-.99,1.08-1.7,2.12-1.59,1.04.12,1.78,1.02,1.65,2.01Z"/>
      <path class="cls-14" d="m146.74,122.88c0-.12,1.37-.13,3.56-.05.55.03,1.09.01,1.24-.34.19-.37.06-1-.09-1.67-.29-1.4-.6-2.87-.92-4.41-1.25-6.27-2.06-11.38-1.81-11.43.25-.05,1.47,4.99,2.72,11.26.3,1.54.58,3.01.85,4.42.1.65.34,1.41-.07,2.18-.21.38-.66.61-1.03.65-.37.05-.67,0-.94-.03-2.18-.24-3.52-.46-3.51-.58Z"/>
      <path class="cls-14" d="m142.21,97.23c-.27.5-2.11-.07-4.35-.16-2.25-.14-4.13.23-4.35-.29-.09-.25.3-.69,1.1-1.09.8-.39,2.01-.69,3.36-.62,1.35.07,2.52.49,3.27.96.75.47,1.09.95.97,1.19Z"/>
      <path class="cls-14" d="m163.98,103.61c-.28.4-2.06-.24-4.26-.51-2.2-.31-4.06-.16-4.25-.62-.08-.22.32-.56,1.12-.83.79-.26,2-.41,3.32-.24,1.32.18,2.46.63,3.17,1.1.72.47,1.04.91.91,1.1Z"/>
      <path class="cls-12" d="m117.89,109.34c-.22-.14-9.05-4.4-10.32,5.12-1.27,9.52,8.55,8.84,8.6,8.57.05-.27,1.72-13.69,1.72-13.69Z"/>
      <path class="cls-10" d="m113.74,119.03s-.18.09-.48.19c-.29.09-.77.11-1.24-.14-.96-.5-1.59-2.21-1.41-3.94.09-.87.38-1.67.78-2.31.38-.66.9-1.08,1.42-1.11.52-.05.84.3.92.59.09.28,0,.47.05.49.02.03.23-.13.2-.54-.01-.19-.1-.43-.29-.65-.2-.22-.53-.36-.88-.37-.74-.05-1.49.54-1.93,1.24-.48.7-.83,1.6-.93,2.58-.2,1.93.55,3.85,1.87,4.44.65.26,1.23.14,1.55-.05.33-.2.4-.4.37-.42Z"/>
      <path class="cls-14" d="m143.88,129.29c.13-.23-1.69-.97-2.85-2.84-.58-.93-.87-1.9-1.09-2.62-.21-.72-.39-1.17-.49-1.15-.1.02-.12.49-.04,1.26.09.76.32,1.86.97,2.91.64,1.06,1.57,1.74,2.27,2.09.7.36,1.19.43,1.23.35Z"/>
      <path class="cls-14" d="m106.61,92.7c2.3-3.19,3.14-7.17,4.57-10.83,1.44-3.66,3.89-7.36,7.7-8.34l.08.04c3.43-1.03,7.52-.67,10.03,1.88,1.13-4.91,5.85-8.44,10.82-9.26,4.97-.82,12.67.65,17.15,2.95,3.46,1.78,6.66,5.06,10.49,9.81,1.61,2,3.07,4.13,4.33,6.36l3.01,13.41-4.24,6.49c-.26.44-.53.89-.84,1.32v-.03l-4.58,14.09c.16-3.94,1.7-17.57,1.86-21.51-6.03-.82-11.28-3.77-14.93-8.64-1.92-2.57-3.33-5.7-6.07-7.38-3.53-2.17-8.05-1.25-12.07-.25l.18-.13c-2.11.75-4.08,1.91-5.76,3.4.16,7.81-1.37,15.64-4.48,22.8-.47,1.08-1.68,3.28-2.81,3.6-2.22.63-2.6-1.61-3.78-2.89-.87-.94-2.27-1.18-3.82-1.32-.69-2.47-1.25-6.57-1.71-10.16-1.33.27-2.72.25-4.04-.1.5-.95,1-1.89,1.51-2.84-.57.29-1.15.58-1.79.62-.63.03-1.33-.27-1.56-.86-.3-.77.28-1.57.76-2.23Z"/>
      <path class="cls-6" d="m133.22,77.46s-.62.31-1.52,1.15c-.89.83-1.94,2.32-2.57,4.43-.32,1.05-.57,2.23-.68,3.51-.12,1.28-.15,2.67-.18,4.13-.04,1.46-.08,3-.32,4.58-.12.79-.29,1.59-.54,2.38-.25.78-.54,1.62-1.2,2.25-.53.51-1.35.69-2.03.48-.69-.19-1.27-.62-1.68-1.16-.8-1.13-.9-2.48-1.02-3.67l.29.06c-.57,1.01-1.16,2-1.97,2.76-.79.77-1.83,1.23-2.85,1.23-.51,0-1-.13-1.41-.38-.42-.25-.7-.65-.89-1.05-.17-.41-.24-.85-.18-1.26.06-.41.26-.79.55-1.04l.14.15c-1.19,1.13-2.38,1.68-3.2,1.97-.41.15-.74.23-.96.27-.22.04-.34.06-.34.05,0,0,.11-.04.33-.1.22-.07.53-.16.94-.32.8-.32,1.96-.89,3.1-2.01l.14.15c-.51.45-.62,1.32-.28,2.06.17.36.43.72.8.93.37.22.82.34,1.28.33.93,0,1.9-.44,2.65-1.17.76-.73,1.33-1.7,1.9-2.71l.24-.43.05.49c.12,1.19.24,2.49.97,3.5.36.49.9.88,1.5,1.04.6.17,1.26.03,1.72-.41.58-.54.87-1.34,1.11-2.1.24-.77.41-1.56.53-2.33.24-1.56.28-3.09.33-4.54.04-1.46.08-2.85.21-4.14.13-1.3.4-2.49.73-3.55.66-2.13,1.77-3.64,2.7-4.45.94-.82,1.6-1.06,1.6-1.06Z"/>
      <path class="cls-6" d="m175.1,95s-.04.03-.12.08c-.1.06-.22.13-.37.22-.16.1-.37.22-.63.32-.25.12-.54.26-.89.37-1.35.5-3.48.92-6.07.52-2.56-.38-5.56-1.58-8.13-3.88-2.6-2.26-4.77-5.43-6.46-9-.86-1.78-1.52-3.59-2.29-5.27-.76-1.68-1.62-3.25-2.72-4.53-1.09-1.28-2.4-2.28-3.79-2.81-.69-.28-1.41-.39-2.1-.44-.69-.03-1.36.05-1.97.19-1.24.29-2.27.87-3.07,1.48-.8.62-1.36,1.3-1.76,1.9-.75,1.22-.86,2.04-.91,2.02,0,0,0-.05.02-.15.03-.11.06-.25.11-.42.1-.37.31-.89.67-1.53.39-.61.95-1.32,1.76-1.97.81-.64,1.85-1.25,3.13-1.56.64-.15,1.32-.24,2.04-.22.71.04,1.46.16,2.18.44,1.45.54,2.81,1.56,3.92,2.87,1.14,1.3,2.02,2.9,2.79,4.6.77,1.69,1.44,3.5,2.29,5.26,1.67,3.54,3.81,6.68,6.36,8.91,2.52,2.28,5.45,3.47,7.96,3.88,2.54.42,4.64.04,5.99-.41,1.36-.46,2.03-.92,2.05-.88Z"/>
      <path class="cls-14" d="m163.6,108.95c-.3.26-1.79-1.19-4.12-1.47-2.32-.31-4.18.71-4.4.38-.11-.15.23-.63,1.04-1.1.8-.46,2.11-.85,3.56-.66,1.45.19,2.6.88,3.24,1.53.65.65.83,1.2.68,1.32Z"/>
      <path class="cls-14" d="m161.62,113.27c-.13.99-1.08,1.7-2.12,1.59-1.04-.12-1.78-1.01-1.65-2.01.13-.99,1.08-1.71,2.12-1.59,1.04.12,1.78,1.02,1.65,2.01Z"/>
      <path class="cls-14" d="m170.75,83.6c1.02,1.69,2.69,3.31,4.67,3.3.58,0,2.14-.39,2.14-.39.64.48.23,2.8-.3,3.4-.54.59-1.62,1.36-1.62,1.36,2.16,1.47,4.31,1.08,6.84.45-.87,4.11-4.1,7.63-8.11,8.85-1.28.39-2.81.51-3.85-.33-.92-.74-1.2-2.01-1.37-3.17-.66-4.29-.78-8.66-.37-12.98l1.98-.48Z"/>
    </g>
    <path class="cls-5" d="m144.97,162.52s8.8,3.58,13.81,15.76c3.52,8.56,23.1,35.58,23.1,35.58l52.06,11.56,1.78,16.61-83.27-.69-11.57-36.85,4.09-41.97Z"/>
    <path class="cls-9" d="m109.91,147.17l-9.24,3.88c-8.55,3.59-19.49,11.84-23.16,20.35-8.81,20.49-16.79,46.89-19.85,70.22-3.09,23.53,3.06,58.35,3.06,58.35l78.13-44.65-4.57-3.2,14.81-80.56-2.76-9.75,1.84-8.25s-20.73-8.33-35.83-14.29l-2.44,7.88Z"/>
    <g class="cls-11">
      <path d="m102.45,276.7c.29-4.02.58-8.05.87-12.07-.91.87-2.13,1.39-3.38,1.45,1.95-1.87,3.69-3.96,5.16-6.21-1.19.51-2.37,1.02-3.56,1.53,1.26-.95,2.31-2.19,3.03-3.6-1.91-1.5-4.6-1.25-7.01-1-12.36,1.25-24.82.42-37.21-.41-.97-.07-2.77-.47-3.55-1.05,0,0-.25-3.4.3-4.66s1.41-.9,2.71-1.37c1.3-.46,2.7-.56,4.07-.63,15.09-.8,30.21.45,45.27,1.69.93.08,1.92.18,2.65.77,1.23,1,1.13,2.88.91,4.45-.77,5.63-1.53,11.27-2.3,16.9"/>
    </g>
    <path class="cls-14" d="m148.19,168.34s0,.26-.08.76c-.08.54-.18,1.26-.32,2.15-.29,1.87-.73,4.56-1.32,7.88-1.17,6.65-2.95,15.8-5.05,25.88-2.11,10.08-4.12,19.19-5.61,25.77-.75,3.25-1.36,5.89-1.8,7.79-.21.88-.39,1.58-.52,2.11-.12.48-.2.73-.21.73-.02,0,.02-.26.11-.75.11-.54.25-1.25.42-2.13.4-1.9.95-4.56,1.64-7.82,1.41-6.65,3.33-15.75,5.46-25.8,2.1-10.08,3.93-19.22,5.2-25.84.62-3.27,1.12-5.94,1.49-7.85.17-.89.31-1.6.41-2.13.1-.49.16-.74.18-.74Z"/>
    <path class="cls-14" d="m77.51,282.71s.15-.18.46-.48c.36-.33.82-.76,1.4-1.29.61-.56,1.36-1.23,2.27-1.98.9-.75,1.91-1.63,3.09-2.52,2.31-1.84,5.16-3.92,8.41-6.09,3.27-2.14,6.95-4.37,10.94-6.49,4-2.1,7.92-3.88,11.53-5.37,3.63-1.46,6.95-2.64,9.78-3.51,1.4-.47,2.7-.8,3.83-1.13,1.13-.33,2.11-.57,2.91-.76.76-.18,1.38-.32,1.85-.43.42-.09.65-.13.65-.12,0,.02-.21.09-.63.22-.47.13-1.08.31-1.83.52-.8.22-1.77.49-2.88.84-1.12.35-2.4.71-3.79,1.2-2.8.91-6.1,2.12-9.71,3.6-3.59,1.51-7.49,3.3-11.47,5.38-3.97,2.11-7.64,4.31-10.92,6.43-3.25,2.14-6.12,4.18-8.45,5.98-1.19.87-2.21,1.73-3.13,2.46-.92.72-1.7,1.37-2.32,1.91-.6.5-1.09.9-1.46,1.21-.34.27-.52.41-.53.4Z"/>
    <path class="cls-14" d="m117.62,253.22c.07.13-7.53,4.4-16.97,9.54-9.44,5.14-17.15,9.21-17.22,9.08-.07-.13,7.53-4.4,16.97-9.54,9.44-5.14,17.15-9.21,17.22-9.08Z"/>
    <g class="cls-11">
      <path d="m90.17,191.49c4.85,20.96,19.68,39.75,39.42,48.3-13.13-13.88-27.4-31.39-39.42-48.3Z"/>
    </g>
    <g class="cls-11">
      <path d="m146.94,175.54c1.91,8.88.49,19.96-3.96,27.87l-1.11-2.3c1.57-6.66,3.82-18.5,5.07-25.57"/>
    </g>
    <g>
      <g>
        <path class="cls-6" d="m188.48,387.43l-9.37,28.19s25.5,18.99,24.28,24.36l-55.3-16.2,12.79-44.52,27.6,8.16Z"/>
        <g class="cls-11">
          <path d="m188.48,387.43l-9.37,28.19s25.5,18.99,24.28,24.36l-55.3-16.2,12.79-44.52,27.6,8.16Z"/>
        </g>
        <path class="cls-8" d="m162.72,408.21c-1.16-.02-2.25.97-2.32,2.12-.07,1.15.93,2.27,2.08,2.31,1.16.04,2.5-1.1,2.44-2.26-.06-1.15-1.3-2.4-2.43-2.17"/>
        <g class="cls-3">
          <path class="cls-1" d="m148.09,423.79l1.46-4.44,52.48,17.19s2.15,1.79,1.36,3.45l-55.3-16.2Z"/>
        </g>
        <path class="cls-14" d="m180.09,415.6c-.09.27-1.47,0-3.06.47-1.6.44-2.62,1.41-2.84,1.23-.23-.13.64-1.62,2.57-2.17,1.92-.56,3.46.24,3.33.47Z"/>
        <path class="cls-14" d="m185.19,419.7c-.01.28-1.32.4-2.57,1.27-1.28.84-1.87,2-2.14,1.91-.27-.03,0-1.67,1.59-2.72,1.57-1.07,3.19-.72,3.12-.46Z"/>
        <path class="cls-14" d="m186.45,427.6c-.26-.01-.24-1.47.88-2.75,1.12-1.28,2.56-1.49,2.61-1.24.09.27-.96.82-1.87,1.88-.93,1.04-1.34,2.16-1.62,2.1Z"/>
        <path class="cls-14" d="m181.52,408.94c-.19.21-1.32-.52-2.87-.87-1.55-.37-2.89-.21-2.96-.48-.1-.24,1.35-.9,3.18-.47,1.83.42,2.85,1.65,2.65,1.82Z"/>
      </g>
      <g>
        <path class="cls-6" d="m204.61,400.01l-1.17,29.68s29.78,11.15,30.09,16.66l-57.63-.2-.08-46.32,28.78.17Z"/>
        <path class="cls-8" d="m185.63,427.13c-1.12.3-1.89,1.55-1.64,2.68.25,1.13,1.52,1.93,2.64,1.65,1.12-.28,2.1-1.76,1.72-2.85-.38-1.09-1.92-1.95-2.94-1.41"/>
        <g class="cls-3">
          <path class="cls-1" d="m175.91,446.16l.17-4.67,55.19,1.93s2.56,1.12,2.27,2.93l-57.63-.2Z"/>
        </g>
        <path class="cls-14" d="m204.38,429.4c-.01.28-1.42.4-2.81,1.3-1.41.86-2.13,2.08-2.39,1.97-.26-.06.17-1.74,1.87-2.8,1.69-1.08,3.39-.73,3.33-.48Z"/>
        <path class="cls-14" d="m210.41,431.92c.06.27-1.16.75-2.12,1.93-.99,1.16-1.24,2.44-1.52,2.43-.26.04-.45-1.61.77-3.06,1.21-1.46,2.86-1.58,2.87-1.31Z"/>
        <path class="cls-14" d="m213.82,439.17c-.26.06-.64-1.35.08-2.89.72-1.54,2.05-2.15,2.16-1.91.16.23-.7,1.06-1.28,2.33-.61,1.26-.69,2.44-.97,2.47Z"/>
        <path class="cls-14" d="m203.89,422.61c-.12.26-1.41-.14-3-.03-1.59.07-2.83.6-2.98.36-.16-.2,1.05-1.24,2.93-1.34,1.87-.11,3.19.79,3.05,1.01Z"/>
      </g>
      <path class="cls-14" d="m135.59,254.68s69.07,17.95,77.64,29.91c7.25,10.11-30.78,113.38-30.78,113.38l-30-2.59,12.93-86.38-77.39-24.6,11.69-29.71h35.9Z"/>
      <path class="cls-14" d="m140.53,270.85s70.61,17.16,77.75,29.35c3.33,5.69,1.15,24.37-.1,33.18-.84,5.94-13.32,89.06-13.32,89.06h-30.52l.67-93.88h0l-73.36-14.79s-39.38,3-40.91-13.8l16.43-22.27,38.8-19.18,24.57,12.33Z"/>
      <path class="cls-6" d="m135.16,268.7s.35.08,1.03.27c.69.19,1.69.47,3,.83,2.64.74,6.52,1.82,11.51,3.22,5,1.4,11.12,3.11,18.19,5.21,7.06,2.13,15.09,4.64,23.77,7.93,4.35,1.63,8.85,3.49,13.48,5.55,1.16.52,2.32,1.05,3.5,1.59,1.17.57,2.32,1.2,3.44,1.91,1.12.71,2.21,1.5,3.21,2.42.99.92,1.93,1.95,2.57,3.21,2.38,10.82.94,22.65-.82,34.74-.77,6.09-1.76,12.3-2.7,18.66-.95,6.35-1.92,12.84-2.91,19.45-1.98,13.21-4.02,26.88-6.12,40.89-.4,2.65-.79,5.29-1.19,7.91l-.03.22h-.22c-10.4,0-20.6,0-30.52,0h-.26v-.26c.28-35.59.53-67.8.73-93.88l.16.2c-21.93-4.46-39.76-8.08-52.12-10.6-6.16-1.27-10.96-2.25-14.23-2.92-1.62-.34-2.86-.6-3.71-.78-.83-.18-1.26-.28-1.26-.28,0,0,.43.07,1.27.23.85.16,2.09.41,3.72.72,3.27.65,8.08,1.6,14.25,2.82,12.37,2.47,30.21,6.04,52.15,10.43l.16.03v.16c-.17,26.08-.38,58.29-.61,93.88l-.26-.26c9.92,0,20.12,0,30.52,0l-.26.22c.39-2.62.79-5.26,1.19-7.91,2.1-14.01,4.15-27.68,6.13-40.89.99-6.6,1.97-13.09,2.92-19.44.94-6.35,1.94-12.57,2.71-18.65.41-3.04.82-6.04,1.22-9,.44-2.96.66-5.88.77-8.79.1-2.9.1-5.76,0-8.57-.06-1.41-.14-2.8-.26-4.18-.15-1.38-.16-2.77-.81-3.94-.6-1.18-1.5-2.19-2.47-3.09-.98-.89-2.04-1.68-3.15-2.38-1.1-.7-2.24-1.33-3.39-1.89-1.17-.53-2.34-1.06-3.49-1.59-4.62-2.08-9.11-3.94-13.45-5.58-8.67-3.31-16.68-5.84-23.73-7.99-7.06-2.13-13.17-3.87-18.16-5.3-4.98-1.44-8.85-2.55-11.49-3.31-1.3-.39-2.3-.68-2.98-.88-.67-.2-1.01-.32-1.01-.32Z"/>
    </g>
    <g>
      <path class="cls-12" d="m232.94,226.23c.45-.67,6.28-7.4,7.85-7.4s3.37,1.8,3.37,1.8c0,0,2.02-.9,3.37-.45,1.35.45,7.63,5.83,7.63,7.85v3.37s.22,1.12,0,2.69c-.22,1.57-4.04,4.26-4.04,4.26h-21.53s-4.12-2.77-3.6-5.39c.52-2.61,6.96-6.73,6.96-6.73Z"/>
      <path class="cls-10" d="m244.16,220.62s.5.24,1.34.76c.92.58,2.12,1.34,3.56,2.24.37.25.77.45,1.18.8.39.35.7.81.87,1.34.19.55.15,1.12.2,1.66.03.56.06,1.13.09,1.71.11,2.36.24,4.93.37,7.63.02.41.04.82.06,1.22v.21s-.2.05-.2.05c-.45.11-.88.22-1.32.33h-.03s-.03,0-.03,0c-.63,0-1.23-.26-1.69-.63-.46-.37-.81-.83-1.09-1.3-.55-.95-.88-1.95-1.13-2.9-.48-1.91-.67-3.67-.74-5.17l.12.16c-1.53-.6-2.79-1.1-3.76-1.49-.88-.36-1.36-.57-1.35-.61s.51.12,1.42.42c.99.34,2.27.79,3.82,1.33l.11.04v.12c.12,1.47.34,3.22.84,5.07.25.92.59,1.88,1.11,2.76.51.87,1.32,1.67,2.36,1.68h-.07c.43-.1.87-.21,1.32-.32l-.2.26c-.02-.4-.04-.81-.06-1.22-.12-2.7-.23-5.28-.33-7.63-.02-.59-.05-1.16-.07-1.71-.03-.56,0-1.1-.15-1.55-.14-.46-.4-.87-.73-1.18-.32-.3-.75-.54-1.11-.79-1.41-.97-2.57-1.77-3.47-2.38-.81-.57-1.25-.9-1.23-.93Z"/>
      <path class="cls-10" d="m229.59,237.58s.51-.11,1.44-.19c1.04-.08,2.36-.19,3.92-.31h.03s.03,0,.03,0c1.27.3,2.78.59,4.43.8.83.1,1.69.19,2.59.21.87.02,1.85-.03,2.37-.67.29-.34.37-.83.37-1.32.01-.49-.07-.98-.09-1.52-.02-.38-.28-.79-.59-1.1-.31-.33-.68-.58-1.07-.8-1.57-.88-3.23-.9-4.62-.82-1.43.04-2.6-.53-3.05-1.22-.47-.67-.43-1.16-.4-1.15.04-.01.08.45.56,1.03.46.59,1.53,1.05,2.89.98,1.34-.13,3.16-.16,4.85.76.42.23.83.51,1.19.87.35.36.7.81.74,1.45.01.46.1.98.09,1.52,0,.53-.09,1.15-.48,1.63-.35.44-.87.67-1.35.77-.49.11-.98.1-1.43.09-.92-.03-1.8-.12-2.64-.23-1.68-.24-3.18-.56-4.47-.9h.06c-1.57.06-2.89.11-3.93.15-.93.02-1.45.01-1.45-.03Z"/>
      <path class="cls-10" d="m251.54,237.48c-.11-.08.77-1.75,1.73-3.91.97-2.15,1.85-3.86,1.99-3.8.12.06-.54,1.85-1.51,4.01-.97,2.17-2.08,3.77-2.21,3.69Z"/>
    </g>
    <path class="cls-14" d="m204.82,242.04l77.69,1.03,25.01-70.14c.55-1.46-.13-3.1-1.55-3.73h0c-1.55-.69-3.36.07-3.95,1.66l-24.64,66.42-72.56.72c-1.11.01-2,.91-2,2.02h0c0,1.11.9,2.02,2.01,2.02Z"/>
    <path class="cls-5" d="m89.04,189.97s37.95,51.66,43.89,51.66h55.45v-21.01l-41.94-9.89s-20.65-42.73-25.22-48.21c-4.57-5.48-16.79-12.84-25.92-4.62-9.13,8.22-6.27,32.06-6.27,32.06Z"/>
    <g>
      <path class="cls-12" d="m188.34,222.65l9.08-.73s.2-3.37,2.18-4.56c1.98-1.19,1.78-3.77,2.97-3.57,1.19.2,1.98-.01,1.98-.01l7.54-6.34,6.35-4.16,4.96-.99s2.97.79,0,3.57l-3.17,1.78-2.78,2.78,6.35-3.11c.59-.29,1.28-.3,1.87-.02,1.46.69,4.16,2.02,4.87,2.73.99.99,0,1.98,0,1.98l2.78,2.38s.59,3.17-2.58,2.38l-2.58-.6-3.37,3.37s11.5-2.38,12.3-1.98c.79.4,1.78,2.18,0,3.77-1.78,1.59-8.73,1.19-10.31,2.78-1.59,1.59-12.08,11.17-14.65,11.76-2.58.59-23.74,5.76-23.74,5.76l-.04-18.98Z"/>
      <path class="cls-10" d="m233.32,214.39s-.6-.41-1.56-1.11c-.48-.35-1.04-.76-1.68-1.2-.32-.22-.66-.44-1.01-.66-.35-.2-.75-.46-1.06-.44-.77.05-1.53.59-2.22.92-.68.37-1.29.72-1.8,1.02-1.01.6-1.64.98-1.68.92-.04-.06.51-.55,1.48-1.23.49-.34,1.08-.73,1.76-1.13.34-.2.7-.4,1.08-.6.39-.2.83-.4,1.35-.42.12-.01.26,0,.41.05.13.04.24.09.35.14.21.1.4.22.59.33.37.23.71.47,1.03.7.64.47,1.18.91,1.64,1.3.9.77,1.39,1.34,1.33,1.39Z"/>
      <path class="cls-10" d="m205.46,213.03c.09.12-.86.94-1.95,2-1.09,1.07-2,1.94-2.11,1.84-.1-.09.63-1.12,1.75-2.21,1.13-1.09,2.24-1.73,2.32-1.62Z"/>
    </g>
    <path class="cls-14" d="m121.22,162.52s.89,1.02,2.2,3.2c1.31,2.17,3.16,5.4,5.38,9.6,4.47,8.38,10.62,20.53,17.83,35.32l-.15-.12c12.37,2.91,26.62,6.25,41.94,9.85l.2.05v.2c0,6.76,0,13.8,0,21.01v.26s-.26,0-.26,0h-2.52c-16.72,0-32.64-.01-47.13-.02-1.81,0-3.6,0-5.36,0-.22,0-.42.01-.7-.03-.25-.05-.47-.13-.68-.23-.42-.19-.79-.44-1.16-.69-.72-.52-1.38-1.08-2.02-1.66-2.54-2.34-4.77-4.82-6.91-7.23-4.25-4.84-8.03-9.51-11.45-13.79-6.81-8.58-12.14-15.66-15.81-20.57-1.81-2.45-3.22-4.36-4.19-5.68-.46-.64-.82-1.14-1.07-1.49-.24-.34-.35-.52-.35-.52,0,0,.14.16.39.49.26.34.63.83,1.11,1.46.99,1.3,2.42,3.19,4.26,5.62,3.71,4.87,9.09,11.92,15.94,20.47,3.43,4.26,7.22,8.92,11.48,13.74,2.14,2.4,4.38,4.87,6.9,7.17.63.57,1.28,1.13,1.98,1.63.35.24.71.48,1.08.65.39.19.71.23,1.18.21,1.76,0,3.55,0,5.36,0,14.49,0,30.41-.01,47.13-.02h2.52l-.26.26c0-7.2,0-14.25,0-21.01l.2.25c-15.32-3.63-29.57-7-41.93-9.93l-.1-.02-.05-.09c-7.17-14.81-13.26-26.98-17.66-35.39-2.19-4.21-4-7.46-5.28-9.65-.66-1.08-1.14-1.92-1.53-2.44-.37-.54-.55-.82-.55-.82Z"/>
    <path class="cls-14" d="m115.71,159.14c-.03.09-1.3-.42-3.42-.91-1.06-.25-2.34-.45-3.78-.57-1.43-.1-3.02-.11-4.67.03-1.65.16-3.2.47-4.59.84-1.38.39-2.61.83-3.6,1.27-2,.87-3.14,1.61-3.19,1.53-.02-.03.25-.23.76-.58.51-.35,1.28-.8,2.28-1.28.99-.49,2.22-.97,3.63-1.4,1.41-.4,2.99-.73,4.68-.9,1.69-.15,3.3-.12,4.76,0,1.46.15,2.76.39,3.82.69,1.07.29,1.91.58,2.48.84.57.24.87.39.86.43Z"/>
    <path class="cls-14" d="m138.81,220.29c-.12-.05.86-2.43,2.83-4.88,1.96-2.47,4.06-3.95,4.13-3.85.1.12-1.81,1.76-3.72,4.17-1.93,2.4-3.09,4.63-3.23,4.56Z"/>
    <path class="cls-14" d="m137.53,213.85c-.09-.1,1.38-1.35,3.6-2.13,2.21-.8,4.14-.77,4.13-.63.01.16-1.83.35-3.96,1.12-2.13.75-3.68,1.77-3.77,1.64Z"/>
    <g>
      <path class="cls-6" d="m173.17,321.69c-.81-1.67-2.75-2.41-4.51-2.97-34.93-11.26-72.41-16.66-108.52-10.1-4.34.79-8.83,1.83-12.27,4.58-3.45,2.76-5.52,7.71-3.68,11.72l7.41,2.37c36.93-4.11,74.35-3.85,111.22.79,2.48.31,5.11.63,7.41-.36,2.3-.98,4.03-3.78,2.94-6.03Z"/>
      <path class="cls-14" d="m132.63,310.14s-.08,0-.23-.01c-.18-.02-.4-.05-.68-.09-.64-.1-1.5-.22-2.59-.39-2.24-.36-5.49-.88-9.52-1.34-8.06-.96-19.27-1.81-31.66-1.51-3.1.06-6.12.21-9.03.45-2.92.22-5.72.38-8.41.63-.34.02-.69.02-1.04-.02-.32-.04-.63-.06-.95-.04-.63.03-1.25.15-1.87.28-1.24.26-2.45.51-3.62.75-2.33.52-4.47,1.09-6.39,1.73-3.85,1.26-6.78,2.79-8.67,4.03-.95.61-1.66,1.14-2.13,1.51-.22.17-.39.3-.54.41-.12.09-.19.13-.2.13,0,0,.05-.06.16-.17.14-.12.3-.27.51-.45.45-.4,1.14-.95,2.08-1.6,1.87-1.3,4.8-2.9,8.66-4.22,1.93-.66,4.08-1.26,6.42-1.8,1.17-.25,2.38-.51,3.62-.78.62-.13,1.27-.27,1.95-.31.34-.02.69,0,1.03.04.31.04.63.04.96.01,2.66-.25,5.49-.43,8.41-.66,2.92-.25,5.95-.4,9.05-.46,12.42-.3,23.66.61,31.72,1.67,4.04.51,7.28,1.08,9.51,1.5,1.08.2,1.94.36,2.57.48.27.06.49.1.67.14.15.03.23.06.22.06Z"/>
      <path class="cls-6" d="m45.1,253.22l59.53,2.08c.88.03,1.54.82,1.41,1.69l-8.57,71.4h13.42l6.93-78.6c.33-2.68-1.71-5.07-4.41-5.17l-69.91-2.51,1.6,11.11Z"/>
    </g>
  </g>
  <g id="Table">
    <polygon class="cls-6" points="361.52 248.01 352.19 248.01 352.19 250.08 372.73 446.42 382.32 446.42 361.52 248.01"/>
    <g>
      <g>
        <polygon class="cls-6" points="153.22 248.01 162.55 248.01 162.55 250.13 143.4 446.35 133.82 446.35 153.22 248.01"/>
        <path class="cls-14" d="m153.22,248.01s-.02.36-.08,1.03c-.06.69-.15,1.69-.27,3-.25,2.64-.61,6.51-1.09,11.5-.96,9.98-2.34,24.43-4.06,42.32-3.47,35.76-8.28,85.32-13.64,140.51l-.26-.29c2.99,0,6.21,0,9.44,0h.14l-.26.24c9.08-92.18,16.78-170.27,19.33-196.21h0c0-.97,0-1.55,0-2.1l.07.07c-3.18-.02-5.5-.03-7.04-.04-.76,0-1.33-.01-1.72-.02-.38,0-.57-.01-.57-.01,0,0,.17,0,.55-.01.38,0,.95,0,1.7-.02,1.55,0,3.88-.02,7.08-.04h.07s0,.07,0,.07c0,.55,0,1.13,0,2.11h0s0,0,0,0c-2.51,25.94-10.06,104.04-18.97,196.24l-.02.24h-.38c-3.23,0-6.45,0-9.44,0h-.29l.03-.29c5.45-55.26,10.34-104.87,13.87-140.67,1.78-17.87,3.22-32.29,4.21-42.25.5-4.96.89-8.81,1.16-11.43.13-1.29.24-2.28.31-2.96.07-.66.12-.99.12-.99Z"/>
      </g>
      <rect class="cls-6" x="130.77" y="241.63" width="267.02" height="8.45"/>
      <path class="cls-14" d="m369.37,250.08c0,.14-53.22.26-118.85.26s-118.86-.12-118.86-.26,53.21-.26,118.86-.26,118.85.12,118.85.26Z"/>
    </g>
  </g>
</svg>