<?xml version="1.0" encoding="UTF-8"?>
<svg id="Layer_2" data-name="Layer 2" xmlns="http://www.w3.org/2000/svg" viewBox="0 0 400.47 310.32">
  <defs>
    <style>
      .cls-1 {
        fill: #415b91;
      }

      .cls-2 {
        fill: #fff;
      }

      .cls-3, .cls-4 {
        fill: #b6d0fb;
      }

      .cls-5 {
        fill: #50aa50;
      }

      .cls-6 {
        fill: #d7e7ff;
      }

      .cls-7 {
        fill: #6cdd6c;
      }

      .cls-8 {
        fill: #3f5b91;
      }

      .cls-4 {
        fill-rule: evenodd;
      }

      .cls-9 {
        fill: #405b91;
      }
    </style>
  </defs>
  <g id="OBJECTS">
    <g>
      <g>
        <g>
          <path class="cls-7" d="m267.9,242.9c-.54-1.76-1.78-3.41-3.53-3.98s-3.98.29-4.53,2.05c-1.61-1.35-4.09-.28-5.39,1.38-2.1,2.68-.48,7.06-.13,7.35.38.31,1.4.25,1.4.25l15.71-.09s2.88-.21,4.21-.74c2.68-1.07,4.5-5.67,2.77-7.98-1.17-1.57-3.49-1.91-5.36-1.31s-3.69,1.77-5.16,3.07"/>
          <path class="cls-5" d="m255.5,250.48c-.4,0-1.11-.05-1.51-.38-.62-.5-2.18-5.23.05-8.07.94-1.2,2.34-2.03,3.67-2.17.69-.08,1.34.04,1.9.34.34-.61.87-1.11,1.55-1.47,1.03-.54,2.29-.65,3.37-.31,1.56.5,2.87,1.82,3.61,3.6,1.53-1.24,3.2-2.18,4.77-2.68,1.88-.6,4.53-.39,5.93,1.49.81,1.08.99,2.68.51,4.39-.58,2.04-1.95,3.76-3.51,4.38-1.39.55-4.24.77-4.37.78l-15.74.09c-.05,0-.13,0-.23,0Zm2.61-9.6c-.1,0-.19,0-.29.02-1.04.11-2.2.81-2.96,1.78-1.84,2.35-.47,6.27-.17,6.67.07.05.59.12,1.01.1l15.73-.09s2.78-.21,4.02-.7c1.25-.5,2.41-1.98,2.89-3.7.4-1.4.27-2.67-.34-3.49-1.1-1.47-3.25-1.62-4.79-1.13-1.63.52-3.4,1.57-4.97,2.96-.13.12-.31.16-.48.11-.17-.05-.3-.18-.36-.35-.55-1.81-1.75-3.17-3.19-3.64-.82-.26-1.78-.17-2.57.24-.65.34-1.11.86-1.3,1.47-.05.17-.18.29-.35.34-.16.05-.35.01-.48-.1-.39-.33-.86-.49-1.39-.49Z"/>
        </g>
        <path class="cls-5" d="m251.38,242.31c-.45.87-.64,1.82-.54,2.8.05.49.83.5.78,0-.09-.85.04-1.65.43-2.41.23-.44-.44-.84-.67-.39h0Z"/>
        <path class="cls-5" d="m249.11,242.93c-.24.88-.26,1.76-.07,2.65.11.49.86.28.75-.21-.17-.75-.14-1.49.07-2.24.13-.48-.62-.69-.75-.21h0Z"/>
        <path class="cls-5" d="m253.47,241.35c.5,0,.5-.78,0-.78s-.5.78,0,.78h0Z"/>
        <path class="cls-5" d="m255.68,245.11v.69c0,.5.78.5.78,0v-.69c0-.5-.78-.5-.78,0h0Z"/>
        <path class="cls-5" d="m268.81,246.32v.35c0,.5.78.5.78,0v-.35c0-.5-.78-.5-.78,0h0Z"/>
        <path class="cls-5" d="m267.37,245.39l.17.17c.35.35.9-.2.55-.55l-.17-.17c-.35-.35-.9.2-.55.55h0Z"/>
      </g>
      <path class="cls-9" d="m46.35,228.24h-26.33c-.57,0-1.04-.46-1.04-1.04s.46-1.04,1.04-1.04h26.33c.57,0,1.04.46,1.04,1.04s-.46,1.04-1.04,1.04Z"/>
      <path class="cls-2" d="m278.2,136.93h-.75c0-.62-.51-1.13-1.13-1.13s-1.13.51-1.13,1.13h-.75c0-1.04.84-1.88,1.88-1.88s1.88.84,1.88,1.88Z"/>
      <path class="cls-2" d="m280.89,93.14h-.75c0-.62-.51-1.13-1.13-1.13s-1.13.51-1.13,1.13h-.75c0-1.04.84-1.88,1.88-1.88s1.88.84,1.88,1.88Z"/>
      <path class="cls-1" d="m187.28,245.3h-35.79l.61-1.44c2.35-5.57,2.59-10.33,2.23-15.78l-.07-1.1,30.17-.09v1.03c.03,3.52.99,11.51,2.42,16.03l.43,1.35Zm-32.7-2.07h29.9c-1.15-4.35-1.93-10.64-2.09-14.26l-25.93.08c.25,4.83-.05,9.22-1.88,14.18Z"/>
      <path class="cls-1" d="m141.21,228.95c-27.17,0-49.18-.15-50.14-.49-2.33-.83-5.36-4.05-5.41-6.34-.09-4.95-.3-11.69-.55-19.5-.74-23.54-1.76-55.77-.44-73.61.24-3.25,2.93-5.76,6.13-5.76h.1l156.63.23c3.31.06,5.97,2.73,6.05,6.09.12,5.21.29,10.54.46,15.93.72,22.6,1.46,45.97-1.04,68.06-.1.87-.14,1.83-.19,2.83-.21,4.64-.47,10.41-6.45,11.59-2.92.58-60.89.97-105.16.97Zm-50.39-104.03c-2.35,0-4.31,1.84-4.49,4.22-1.31,17.75-.3,49.94.44,73.44.25,7.81.46,14.56.55,19.52.03,1.44,2.44,4.13,4.3,4.8,3.33.68,150.59.18,154.42-.54,4.69-.93,4.9-5.55,5.11-10.03.05-1.04.09-2.04.2-2.94,2.49-21.98,1.75-45.28,1.03-67.82-.17-5.4-.34-10.73-.46-15.95-.06-2.46-1.99-4.41-4.4-4.46l-156.62-.23h-.07Z"/>
      <path class="cls-4" d="m243.16,128.87l-147.58-.19c-2.65-.04-4.88,1.78-5.08,4.16-1.65,19.75.6,60.96.93,77.55.03,1.62,2.67,4.04,4.57,4.64,2.24.71,142.48.17,145.91-.43,6.16-1.07,5.11-7.38,5.62-11.41,2.92-22.81,1.13-47.61.55-69.92-.06-2.42-2.24-4.35-4.93-4.39Z"/>
      <path class="cls-1" d="m200.08,250.97h-61.4c-2.44,0-3.71-1.92-3.71-3.81s1.27-3.82,3.71-3.82h61.4c2.44,0,3.71,1.92,3.71,3.81s-1.27,3.82-3.71,3.82Zm-61.4-5.96c-1.61,0-2.04,1.35-2.04,2.15s.43,2.14,2.04,2.14h61.4c1.61,0,2.04-1.35,2.04-2.15s-.43-2.14-2.04-2.14h-61.4Z"/>
      <g>
        <path class="cls-1" d="m95.91,223.14c2.76,0,2.76-4.29,0-4.29s-2.76,4.29,0,4.29h0Z"/>
        <path class="cls-1" d="m104.55,223.14c2.76,0,2.76-4.29,0-4.29s-2.76,4.29,0,4.29h0Z"/>
        <path class="cls-1" d="m113.19,223.14c2.76,0,2.76-4.29,0-4.29s-2.76,4.29,0,4.29h0Z"/>
      </g>
      <path class="cls-1" d="m169.38,127.59c1.29,0,1.3-2.01,0-2.01s-1.3,2.01,0,2.01h0Z"/>
      <g>
        <polygon class="cls-3" points="342.55 246.9 321.39 246.9 329.53 220.17 334.41 220.17 342.55 246.9"/>
        <rect class="cls-3" x="319.65" y="246.9" width="24.65" height="3.05"/>
        <polygon class="cls-1" points="323.43 240.22 321.39 246.9 342.55 246.9 340.52 240.22 323.43 240.22"/>
        <polygon class="cls-1" points="325.46 233.54 338.48 233.54 336.45 226.85 327.5 226.85 325.46 233.54"/>
      </g>
      <path class="cls-3" d="m351.2,249.78h4.69v-18.18h24.1v18.18h4.69v-18.18h4.97v-14.52h-3.97v-1.34h-6.84v1.34h-21.35v-1.34h-6.84v1.34h-4.35v14.52h4.89v18.18Zm36.95-31.18v.06l-2.89,11.42h-5.16l2.91-11.48h5.15Zm-13.47,11.48h-5.16l2.91-11.48h5.16l-2.91,11.48Zm-10.57,0h-5.16l2.91-11.48h5.16l-2.91,11.48Zm-12.83-11.48h5.16l-2.91,11.48h-5.16l2.91-11.48Z"/>
      <g>
        <path class="cls-3" d="m120.28,72.07l1.41-1.41c.29-.28.29-.75,0-1.03l-1.23-1.22c-.28-.29-.36-.8-.16-1.16l1-2.42c.11-.39.54-.7.94-.7h1.73c.4,0,.73-.33.73-.73v-1.99c0-.4-.33-.73-.73-.73h-1.73c-.4,0-.82-.32-.94-.7l-1-2.42c-.19-.35-.12-.87.16-1.16l1.23-1.22c.29-.29.29-.75,0-1.03l-1.41-1.41c-.28-.28-.75-.28-1.03,0l-1.23,1.23c-.29.28-.8.36-1.15.17l-2.43-1c-.39-.11-.7-.53-.7-.94v-1.73c0-.4-.33-.73-.73-.73h-1.99c-.4,0-.73.33-.73.73v1.73c0,.4-.31.82-.7.94l-2.43,1c-.35.19-.87.12-1.15-.17l-1.23-1.22c-.28-.29-.75-.29-1.03,0l-1.41,1.41c-.29.28-.29.74,0,1.03l1.22,1.22c.28.29.36.81.17,1.16l-1,2.42c-.11.39-.54.7-.94.7h-1.74c-.4,0-.73.32-.73.73v1.99c0,.4.33.73.73.73h1.74c.4,0,.82.32.94.7l1,2.42c.19.35.12.87-.17,1.16l-1.22,1.22c-.29.29-.29.75,0,1.03l1.41,1.41c.28.29.74.29,1.03,0l1.23-1.22c.28-.28.8-.36,1.16-.16l2.42,1c.39.11.7.53.7.94v1.74c0,.4.33.73.73.73h1.99c.4,0,.73-.33.73-.73v-1.74c0-.4.31-.82.7-.94l2.43-1c.35-.19.87-.12,1.15.16l1.23,1.22c.28.29.75.29,1.03,0Zm-8.26-3.85c-3.21,0-5.82-2.61-5.82-5.82s2.61-5.82,5.82-5.82,5.82,2.6,5.82,5.82-2.61,5.82-5.82,5.82Z"/>
        <path class="cls-3" d="m133.74,77.57l-.36-1.18c-.07-.24-.33-.37-.56-.3l-1.03.31c-.24.07-.55-.04-.68-.25l-1.03-1.25c-.17-.17-.22-.5-.11-.72l.51-.95c.12-.22.03-.5-.18-.61l-1.09-.58c-.22-.12-.49-.03-.61.19l-.51.95c-.12.22-.41.36-.66.31l-1.62-.16c-.25,0-.51-.19-.58-.43l-.31-1.03c-.07-.24-.32-.37-.56-.3l-1.18.35c-.24.07-.37.33-.3.57l.31,1.03c.07.24-.04.54-.25.68l-1.25,1.03c-.17.18-.5.22-.72.11l-.95-.51c-.22-.12-.49-.04-.61.19l-.59,1.08c-.11.22-.03.5.18.61l.95.51c.22.12.36.41.31.65l-.16,1.62c0,.25-.19.51-.43.58l-1.03.31c-.24.07-.38.33-.3.56l.36,1.18c.07.24.32.37.56.3l1.03-.31c.24-.07.54.04.68.25l1.03,1.26c.18.17.22.5.11.72l-.51.95c-.12.22-.03.49.19.61l1.09.58c.22.12.49.03.61-.18l.51-.95c.11-.22.41-.36.65-.31l1.61.16c.25,0,.51.19.59.43l.31,1.03c.07.24.33.38.56.3l1.18-.36c.24-.07.37-.33.3-.56l-.31-1.03c-.07-.24.04-.55.25-.68l1.26-1.03c.17-.18.5-.23.72-.11l.95.51c.22.12.5.04.61-.18l.58-1.09c.12-.22.03-.49-.19-.61l-.95-.51c-.22-.12-.36-.41-.31-.65l.16-1.62c0-.25.19-.51.43-.58l1.03-.31c.24-.07.37-.32.3-.56Zm-4.52,3.38c-.94,1.76-3.13,2.42-4.88,1.48-1.76-.94-2.42-3.13-1.48-4.88.94-1.76,3.13-2.42,4.88-1.48,1.75.94,2.41,3.13,1.47,4.88Z"/>
      </g>
      <path class="cls-9" d="m192.62,100.35h-32.6c-.57,0-1.04-.46-1.04-1.04s.46-1.04,1.04-1.04h32.6c.57,0,1.04.46,1.04,1.04s-.46,1.04-1.04,1.04Z"/>
      <path class="cls-9" d="m126.26,115.16h-52.66c-.57,0-1.04-.46-1.04-1.04s.46-1.04,1.04-1.04h52.66c.57,0,1.04.46,1.04,1.04s-.46,1.04-1.04,1.04Z"/>
      <path class="cls-9" d="m378.73,143.2h-52.66c-.57,0-1.04-.46-1.04-1.04s.46-1.04,1.04-1.04h52.66c.57,0,1.04.46,1.04,1.04s-.46,1.04-1.04,1.04Z"/>
      <path class="cls-9" d="m399.44,252.01H1.04c-.57,0-1.04-.46-1.04-1.04s.46-1.04,1.04-1.04h398.4c.57,0,1.04.46,1.04,1.04s-.46,1.04-1.04,1.04Z"/>
      <g>
        <path class="cls-3" d="m253.3,87.33c-2.23,0-4.33.87-5.91,2.45-2.69,2.69-3.23,6.87-1.3,10.15l.14.23-8.47,8.47s-.41.4-.42.96c0,.43.21.86.64,1.29.45.45.93.69,1.42.69.58,0,.99-.34,1-.34l8.45-8.45.23.14c1.28.75,2.74,1.15,4.23,1.15,2.23,0,4.33-.87,5.91-2.45,3.26-3.26,3.26-8.57,0-11.83-1.58-1.58-3.68-2.45-5.92-2.45Zm0,14.24c-3.24,0-5.88-2.64-5.88-5.88,0-3.24,2.64-5.88,5.88-5.88h0c3.24,0,5.88,2.64,5.88,5.88s-2.64,5.88-5.88,5.88Z"/>
        <path class="cls-3" d="m250.2,96.91h6.06v-1.55h-6.06v1.55Z"/>
      </g>
      <g>
        <path class="cls-9" d="m97.98,250.09c-.57,0-1.04-.46-1.04-1.04v-79.87c0-.57.46-1.04,1.04-1.04s1.04.46,1.04,1.04v79.87c0,.57-.46,1.04-1.04,1.04Z"/>
        <path class="cls-9" d="m116.55,250.09c-.57,0-1.04-.46-1.04-1.04v-79.87c0-.57.46-1.04,1.04-1.04s1.04.46,1.04,1.04v79.87c0,.57-.46,1.04-1.04,1.04Z"/>
        <path class="cls-9" d="m116.55,175.67h-18.56c-.57,0-1.04-.46-1.04-1.04s.46-1.04,1.04-1.04h18.56c.57,0,1.04.46,1.04,1.04s-.46,1.04-1.04,1.04Z"/>
        <path class="cls-9" d="m116.55,184.8h-18.56c-.57,0-1.04-.46-1.04-1.04s.46-1.04,1.04-1.04h18.56c.57,0,1.04.46,1.04,1.04s-.46,1.04-1.04,1.04Z"/>
        <path class="cls-9" d="m116.55,193.93h-18.56c-.57,0-1.04-.46-1.04-1.04s.46-1.04,1.04-1.04h18.56c.57,0,1.04.46,1.04,1.04s-.46,1.04-1.04,1.04Z"/>
        <path class="cls-9" d="m116.55,203.05h-18.56c-.57,0-1.04-.46-1.04-1.04s.46-1.04,1.04-1.04h18.56c.57,0,1.04.46,1.04,1.04s-.46,1.04-1.04,1.04Z"/>
        <path class="cls-9" d="m116.55,212.18h-18.56c-.57,0-1.04-.46-1.04-1.04s.46-1.04,1.04-1.04h18.56c.57,0,1.04.46,1.04,1.04s-.46,1.04-1.04,1.04Z"/>
        <path class="cls-9" d="m116.55,221.3h-18.56c-.57,0-1.04-.46-1.04-1.04s.46-1.04,1.04-1.04h18.56c.57,0,1.04.46,1.04,1.04s-.46,1.04-1.04,1.04Z"/>
        <path class="cls-9" d="m116.55,230.43h-18.56c-.57,0-1.04-.46-1.04-1.04s.46-1.04,1.04-1.04h18.56c.57,0,1.04.46,1.04,1.04s-.46,1.04-1.04,1.04Z"/>
        <path class="cls-9" d="m116.55,239.55h-18.56c-.57,0-1.04-.46-1.04-1.04s.46-1.04,1.04-1.04h18.56c.57,0,1.04.46,1.04,1.04s-.46,1.04-1.04,1.04Z"/>
      </g>
      <g>
        <path class="cls-9" d="m72.71,173.05c-.57,0-1.04-.46-1.04-1.04v-4.04c0-.57.46-1.04,1.04-1.04s1.04.46,1.04,1.04v4.04c0,.57-.46,1.04-1.04,1.04Z"/>
        <path class="cls-9" d="m74.72,171.03h-4.04c-.57,0-1.04-.46-1.04-1.04s.46-1.04,1.04-1.04h4.04c.57,0,1.04.46,1.04,1.04s-.46,1.04-1.04,1.04Z"/>
      </g>
      <g>
        <path class="cls-9" d="m165.97,28.62c-.57,0-1.04-.46-1.04-1.04v-4.04c0-.57.46-1.04,1.04-1.04s1.04.46,1.04,1.04v4.04c0,.57-.46,1.04-1.04,1.04Z"/>
        <path class="cls-9" d="m167.99,26.6h-4.04c-.57,0-1.04-.46-1.04-1.04s.46-1.04,1.04-1.04h4.04c.57,0,1.04.46,1.04,1.04s-.46,1.04-1.04,1.04Z"/>
      </g>
      <g>
        <path class="cls-9" d="m198.67,237.68c-.09,0-.19-.01-.29-.04l-3.88-1.11c-.55-.16-.87-.73-.71-1.28.16-.55.73-.86,1.28-.71l3.88,1.11c.55.16.87.73.71,1.28-.13.46-.55.75-1,.75Z"/>
        <path class="cls-9" d="m196.17,239.07c-.09,0-.19-.01-.29-.04-.55-.16-.87-.73-.71-1.28l1.11-3.88c.16-.55.73-.86,1.28-.71.55.16.87.73.71,1.28l-1.11,3.88c-.13.46-.55.75-1,.75Z"/>
      </g>
      <g>
        <path class="cls-9" d="m178.27,115.72c-.09,0-.19-.01-.28-.04l-3.88-1.11c-.55-.16-.87-.73-.71-1.28.16-.55.73-.87,1.28-.71l3.88,1.11c.55.16.87.73.71,1.28-.13.46-.55.75-1,.75Z"/>
        <path class="cls-9" d="m175.77,117.1c-.09,0-.19-.01-.29-.04-.55-.16-.87-.73-.71-1.28l1.11-3.88c.16-.55.73-.87,1.28-.71.55.16.87.73.71,1.28l-1.11,3.88c-.13.46-.55.75-1,.75Z"/>
      </g>
      <g>
        <circle class="cls-3" cx="175.55" cy="77.5" r="14.41" transform="translate(-3.38 146.83) rotate(-45)"/>
        <g>
          <circle class="cls-2" cx="175.55" cy="77.5" r="10.79"/>
          <path class="cls-9" d="m175.55,88.71c-6.18,0-11.21-5.03-11.21-11.21s5.03-11.21,11.21-11.21,11.21,5.03,11.21,11.21-5.03,11.21-11.21,11.21Zm0-21.58c-5.72,0-10.37,4.65-10.37,10.38s4.65,10.37,10.37,10.37,10.37-4.65,10.37-10.37-4.65-10.38-10.37-10.38Z"/>
        </g>
        <g>
          <path class="cls-9" d="m175.55,77.91c-.23,0-.42-.19-.42-.42v-5.49c0-.23.19-.42.42-.42s.42.19.42.42v5.49c0,.23-.19.42-.42.42Z"/>
          <path class="cls-9" d="m181.98,77.91h-6.44c-.23,0-.42-.19-.42-.42s.19-.42.42-.42h6.44c.23,0,.42.19.42.42s-.19.42-.42.42Z"/>
        </g>
        <g>
          <path class="cls-9" d="m175.97,67.92c0,.24-.19.43-.43.43s-.43-.19-.43-.43.19-.43.43-.43.43.19.43.43Z"/>
          <path class="cls-9" d="m182.62,71.03c-.17.17-.44.17-.6,0-.17-.17-.17-.44,0-.6.17-.17.44-.17.6,0,.17.17.17.44,0,.6Z"/>
          <path class="cls-9" d="m185.12,77.92c-.24,0-.43-.19-.43-.43s.19-.43.43-.43.43.19.43.43-.19.43-.43.43Z"/>
          <path class="cls-9" d="m182.01,84.57c-.17-.17-.17-.44,0-.6s.44-.17.6,0c.17.17.17.44,0,.6-.17.17-.44.17-.6,0Z"/>
          <path class="cls-9" d="m175.12,87.07c0-.24.19-.43.43-.43s.43.19.43.43-.19.43-.43.43-.43-.19-.43-.43Z"/>
          <path class="cls-9" d="m168.48,83.96c.17-.17.44-.17.6,0s.17.44,0,.6-.44.17-.6,0c-.17-.17-.17-.44,0-.6Z"/>
          <circle class="cls-9" cx="165.97" cy="77.5" r=".43"/>
          <path class="cls-9" d="m169.08,70.42c.17.17.17.44,0,.6-.17.17-.44.17-.6,0s-.17-.44,0-.6.44-.17.6,0Z"/>
        </g>
        <g>
          <path class="cls-9" d="m196.62,71.99h-6.05c-.23,0-.42-.19-.42-.42s.19-.42.42-.42h6.05c.23,0,.42.19.42.42s-.19.42-.42.42Z"/>
          <path class="cls-9" d="m196.62,83.83h-6.05c-.23,0-.42-.19-.42-.42s.19-.42.42-.42h6.05c.23,0,.42.19.42.42s-.19.42-.42.42Z"/>
          <path class="cls-9" d="m204.14,77.92h-11.3c-.23,0-.42-.19-.42-.42s.19-.42.42-.42h11.3c.23,0,.42.19.42.42s-.19.42-.42.42Z"/>
        </g>
      </g>
      <g>
        <g>
          <rect class="cls-2" x="217.17" y="233.54" width="6.68" height="6.68"/>
          <path class="cls-1" d="m224.38,240.74h-7.72v-7.72h7.72v7.72Zm-6.68-1.04h5.65v-5.65h-5.65v5.65Z"/>
        </g>
        <g>
          <path class="cls-9" d="m232.31,235.01h-6.05c-.23,0-.42-.19-.42-.42s.19-.42.42-.42h6.05c.23,0,.42.19.42.42s-.19.42-.42.42Z"/>
          <path class="cls-9" d="m234.59,239.58h-8.18c-.31,0-.56-.19-.56-.42s.25-.42.56-.42h8.18c.31,0,.56.19.56.42s-.25.42-.56.42Z"/>
          <path class="cls-9" d="m237.56,237.17h-11.3c-.23,0-.42-.19-.42-.42s.19-.42.42-.42h11.3c.23,0,.42.19.42.42s-.19.42-.42.42Z"/>
        </g>
      </g>
      <g>
        <g>
          <rect class="cls-2" x="70.45" y="135.48" width="6.68" height="6.68" transform="translate(147.58 277.64) rotate(180)"/>
          <path class="cls-1" d="m77.65,142.68h-7.72v-7.72h7.72v7.72Zm-6.68-1.04h5.64v-5.64h-5.64v5.64Z"/>
        </g>
        <g>
          <path class="cls-9" d="m61.99,136.95h6.05c.23,0,.42-.19.42-.42s-.19-.42-.42-.42h-6.05c-.23,0-.42.19-.42.42s.19.42.42.42Z"/>
          <path class="cls-9" d="m59.72,141.53h8.18c.31,0,.56-.19.56-.42s-.25-.42-.56-.42h-8.18c-.31,0-.56.19-.56.42s.25.42.56.42Z"/>
          <path class="cls-9" d="m56.74,139.11h11.3c.23,0,.42-.19.42-.42s-.19-.42-.42-.42h-11.3c-.23,0-.42.19-.42.42s.19.42.42.42Z"/>
        </g>
      </g>
      <g>
        <rect class="cls-8" x="274.24" y="160.59" width="2.07" height="89.19"/>
        <rect class="cls-3" x="268.9" y="150.83" width="12.76" height="20.55" rx="6.15" ry="6.15"/>
        <path class="cls-8" d="m283.63,165.41c.73.12,1.46.23,2.19.35.49.08.7-.67.21-.75-.73-.12-1.46-.23-2.19-.35-.49-.08-.7.67-.21.75h0Z"/>
        <path class="cls-8" d="m283.56,160.66c.57-.1,1.14-.11,1.72-.06.5.05.49-.73,0-.78-.65-.06-1.28-.03-1.93.09-.49.09-.28.84.21.75h0Z"/>
        <path class="cls-8" d="m283.32,156.33c.56-.22,1.12-.44,1.68-.67.46-.18.26-.93-.21-.75-.56.22-1.12.44-1.68.67-.46.18-.26.93.21.75h0Z"/>
        <path class="cls-8" d="m264.25,166.14c.57-.08,1.13-.21,1.68-.4.47-.16.27-.91-.21-.75-.55.19-1.1.32-1.68.4-.49.07-.28.82.21.75h0Z"/>
        <path class="cls-8" d="m263.24,160.61c.72.02,1.42.13,2.11.32.48.14.69-.61.21-.75-.76-.21-1.53-.33-2.32-.35-.5-.01-.5.76,0,.78h0Z"/>
        <path class="cls-8" d="m263.92,154.21c.56.18,1.12.36,1.68.54.48.15.68-.6.21-.75-.56-.18-1.12-.36-1.68-.54-.48-.15-.68.6-.21.75h0Z"/>
        <polygon class="cls-9" points="270.44 250.99 271.82 239.07 278.56 239.07 280.12 250.82 270.44 250.99"/>
      </g>
      <g>
        <g>
          <g>
            <path class="cls-7" d="m80.1,193.92c-.31-1.9-1.65-6.79-4.6-5.24-4.78,2.51.99,12.02-4.77,13.7-.31-3.79-1.12-6.4-2.84-6.25-3.53.32-2.59,8.53-2.65,10.38-.06,1.84-.15,3.73-.23,5.63-4.16.75-3.33-10.09-5.86-11.59-3.93-2.33-4.76,2.86-4.66,5.26.18,4.08,1.28,8.97,5.12,11.13,1.26.72,3.49,1.52,5.23,1.38-.02,3.26.12,6.51.66,9.61,0,.03.06.03.07,0,0,0,0,0,0,0l2.33.13s0,.03,0,.04c-.02,1.02,1.58,1.03,1.59,0,.03-1.97,1.24-11.64,1.38-19.84,1.86.28,4.2-.59,5.53-1.57,3.97-2.91,4.43-8.26,3.7-12.77Z"/>
            <path class="cls-5" d="m68.67,229.3c-.24,0-.47-.06-.67-.18-.25-.15-.42-.38-.5-.65l-1.72-.09-.62.02-.1-.39c-.46-2.63-.67-5.57-.67-9.22-1.91,0-4.01-.89-5-1.45-4.09-2.31-5.16-7.53-5.34-11.5-.07-1.6.26-4.9,2.05-5.97.91-.54,2.01-.44,3.27.31,1.22.72,1.69,2.95,2.23,5.53.73,3.49,1.39,6,2.99,6.04l.04-.86c.07-1.48.13-2.95.18-4.39,0-.28,0-.72-.02-1.25-.11-3.23-.32-9.25,3.08-9.56.52-.05,1,.1,1.42.45.95.8,1.55,2.64,1.85,5.62,2.15-.96,2.03-3.44,1.91-6.29-.13-2.88-.26-5.86,2.27-7.19.82-.43,1.61-.47,2.33-.1,2.11,1.06,2.84,5.19,2.91,5.66h0c.56,3.46.8,9.77-3.88,13.2-1.3.96-3.5,1.8-5.36,1.7-.12,5.35-.67,11.25-1.04,15.19-.18,1.97-.33,3.53-.34,4.17,0,.45-.23.83-.61,1.04-.2.11-.42.16-.64.16Zm-2.8-1.8l2.47.13v.43c-.02.21.06.27.11.3.12.07.3.07.43,0,.1-.06.15-.15.15-.28,0-.68.15-2.17.34-4.24.38-4.04.95-10.15,1.04-15.6v-.5s.51.07.51.07c1.72.26,3.96-.58,5.21-1.49,4.3-3.15,4.06-9.09,3.53-12.34h0c-.23-1.43-1.04-4.31-2.43-5.01-.46-.23-.96-.2-1.53.09-2.04,1.07-1.92,3.64-1.8,6.37.13,3,.28,6.39-3.05,7.37l-.52.15-.04-.54c-.31-3.78-1.03-5.13-1.59-5.59-.23-.2-.48-.28-.77-.25-2.56.23-2.37,5.92-2.27,8.65.02.56.03,1.01.03,1.31-.05,1.44-.11,2.91-.18,4.4l-.07,1.59-.35.06c-2.84.51-3.64-3.32-4.35-6.7-.46-2.17-.93-4.42-1.81-4.95-.96-.57-1.76-.68-2.37-.31-1.32.79-1.69,3.59-1.62,5.17.17,3.75,1.15,8.66,4.89,10.77,1.29.73,3.4,1.45,4.97,1.32l.48-.04v.48c-.02,3.64.17,6.57.59,9.17Z"/>
          </g>
          <path class="cls-1" d="m75.53,249.97h-16.88c-.9,0-1.62-.59-1.79-1.46l-3.83-19.68,1.59-.31,3.83,19.68c.03.15.16.15.2.15h16.88s.17,0,.2-.15l3.8-19.68,1.59.31-3.8,19.68c-.17.88-.89,1.47-1.79,1.47Z"/>
          <g>
            <g>
              <path class="cls-3" d="m53.2,222.5h28.02c.48,0,.87.53.87,1.17v4.26c0,.65-.39,1.17-.87,1.17h-28.02c-.48,0-.87-.53-.87-1.17v-4.26c0-.65.39-1.17.87-1.17Z"/>
              <path class="cls-9" d="m81.22,229.55h-28.02c-.72,0-1.31-.72-1.31-1.62v-4.26c0-.89.59-1.62,1.31-1.62h28.02c.72,0,1.31.73,1.31,1.62v4.26c0,.89-.59,1.62-1.31,1.62Zm-28.02-6.61c-.2,0-.43.31-.43.73v4.26c0,.42.23.73.43.73h28.02c.2,0,.43-.31.43-.73v-4.26c0-.42-.23-.73-.43-.73h-28.02Z"/>
            </g>
            <g>
              <path class="cls-3" d="m81.22,229.48h-28.02c-.68,0-1.24-.69-1.24-1.54v-4.26c0-.85.55-1.54,1.24-1.54h28.02c.68,0,1.24.69,1.24,1.54v4.26c0,.85-.56,1.54-1.24,1.54Zm-28.02-6.61c-.24,0-.5.33-.5.81v4.26c0,.47.26.81.5.81h28.02c.24,0,.5-.33.5-.81v-4.26c0-.48-.26-.81-.5-.81h-28.02Z"/>
              <path class="cls-9" d="m81.22,229.92h-28.02c-.93,0-1.68-.89-1.68-1.98v-4.26c0-1.09.75-1.99,1.68-1.99h28.02c.93,0,1.68.89,1.68,1.99v4.26c0,1.09-.75,1.98-1.68,1.98Zm-27.97-6.61s-.11.17-.11.36v4.26c0,.23.09.36.12.38h27.96s.06-.15.06-.38v-4.26c0-.23-.09-.36-.12-.38h-27.91Z"/>
            </g>
          </g>
        </g>
        <path class="cls-5" d="m56.25,205.77c.46.06.92.12,1.38.18.5.06.49-.72,0-.78-.46-.06-.92-.12-1.38-.18-.5-.06-.49.72,0,.78h0Z"/>
        <path class="cls-5" d="m58.29,199.65v.69c0,.5.78.5.78,0v-.69c0-.5-.78-.5-.78,0h0Z"/>
        <path class="cls-5" d="m60.98,206.79c.34-.19.67-.38,1.01-.56.44-.24.05-.92-.39-.67-.34.19-.67.38-1.01.56-.44.24-.05.92.39.67h0Z"/>
        <path class="cls-5" d="m56.98,215.73c.41-.28.81-.57,1.22-.85.41-.28.02-.96-.39-.67-.41.28-.81.57-1.22.85-.41.28-.02.96.39.67h0Z"/>
        <path class="cls-5" d="m54.07,209.05c.29.11.58.23.87.34.47.18.67-.57.21-.75-.29-.11-.58-.23-.87-.34-.47-.18-.67.57-.21.75h0Z"/>
        <path class="cls-5" d="m59.71,212.66c.19.01.3.1.41.24.32.39.87-.17.55-.55-.25-.3-.57-.44-.96-.47-.5-.04-.5.74,0,.78h0Z"/>
        <path class="cls-5" d="m61.42,216.32c-.08.54-.02,1.01.19,1.52.19.46.86.06.67-.39-.13-.3-.16-.6-.11-.92.08-.49-.67-.7-.75-.21h0Z"/>
        <path class="cls-5" d="m65.48,216.46l.69.18c.48.13.69-.62.21-.75-.23-.06-.46-.12-.69-.18-.48-.13-.69.62-.21.75h0Z"/>
        <path class="cls-5" d="m67.97,208.81c-.04.44.13.84.47,1.13.38.32.93-.23.55-.55-.2-.17-.26-.33-.24-.58.05-.5-.73-.5-.78,0h0Z"/>
        <path class="cls-5" d="m66.98,203.26c-.23.31-.27.62-.2.99.09.49.84.28.75-.21-.02-.16.02-.29.12-.39.3-.4-.38-.79-.67-.39h0Z"/>
        <path class="cls-5" d="m71.25,205.53v.69c0,.5.78.5.78,0v-.69c0-.5-.78-.5-.78,0h0Z"/>
        <path class="cls-5" d="m64.01,204.31c.17.12.35.23.52.35.42.28.81-.39.39-.67-.17-.12-.35-.23-.52-.35-.42-.28-.81.4-.39.67h0Z"/>
        <path class="cls-5" d="m65.31,197.86c.15.18.22.36.24.59.04.5.82.5.78,0-.03-.45-.18-.8-.47-1.14-.33-.38-.87.17-.55.55h0Z"/>
        <path class="cls-5" d="m67.27,195.5v1.04c0,.5.78.5.78,0v-1.04c0-.5-.78-.5-.78,0h0Z"/>
        <path class="cls-5" d="m72.08,200.07c.11.12.22.24.34.35.35.36.9-.19.55-.55-.11-.12-.22-.24-.34-.35-.35-.36-.9.19-.55.55h0Z"/>
        <path class="cls-5" d="m72.85,195.44c.34.02.69.04,1.03.06.5.03.5-.75,0-.78-.34-.02-.69-.04-1.03-.06-.5-.03-.5.75,0,.78h0Z"/>
        <path class="cls-5" d="m73.96,189.21c.23.23.46.46.69.69.35.35.9-.2.55-.55-.23-.23-.46-.46-.69-.69-.35-.35-.9.2-.55.55h0Z"/>
        <path class="cls-5" d="m76.95,187.21v1.21c0,.5.78.5.78,0v-1.21c0-.5-.78-.5-.78,0h0Z"/>
        <path class="cls-5" d="m78.36,194.49c.11-.17.23-.35.34-.52.28-.42-.4-.81-.67-.39-.11.17-.23.35-.34.52-.28.42.4.81.67.39h0Z"/>
        <path class="cls-5" d="m75.73,202.13c.29-.11.58-.22.87-.34.46-.18.26-.93-.21-.75-.29.11-.58.22-.87.34-.46.18-.26.93.21.75h0Z"/>
        <path class="cls-5" d="m79.17,201.04c.29-.06.58-.12.86-.18.49-.1.28-.85-.21-.75-.29.06-.58.12-.86.18-.49.1-.28.85.21.75h0Z"/>
        <path class="cls-5" d="m76.95,204.67v.17c0,.5.78.5.78,0v-.17c0-.5-.78-.5-.78,0h0Z"/>
        <path class="cls-5" d="m70.27,216.57c.17-.12.35-.23.52-.35.41-.28.03-.95-.39-.67-.17.12-.35.23-.52.35-.41.28-.03.95.39.67h0Z"/>
        <path class="cls-5" d="m69.82,219.44c.31-.3.64-.47,1.06-.57.49-.11.28-.86-.21-.75-.54.13-1,.38-1.4.77-.36.35.19.9.55.55h0Z"/>
        <path class="cls-5" d="m66.62,219.91c.06.11.12.23.18.34.23.45.9.05.67-.39-.06-.11-.12-.23-.18-.34-.23-.45-.9-.05-.67.39h0Z"/>
        <path class="cls-5" d="m63.65,220.75c.44.23.86.28,1.34.19.49-.1.28-.85-.21-.75-.27.06-.5.02-.74-.11-.44-.23-.84.44-.39.67h0Z"/>
        <path class="cls-5" d="m70.08,213.37c.52-.06,1.04-.13,1.55-.19.49-.06.5-.84,0-.78-.52.06-1.04.13-1.55.19-.49.06-.5.84,0,.78h0Z"/>
      </g>
      <g>
        <path class="cls-6" d="m139.75,179.28c8.37-7.57,16.74-15.14,25.11-22.7,1.24-1.12-.6-2.95-1.83-1.83-8.37,7.57-16.74,15.14-25.11,22.7-1.24,1.12.6,2.95,1.83,1.83h0Z"/>
        <path class="cls-6" d="m168.13,190.86c8.37-7.57,16.74-15.14,25.11-22.7,1.24-1.12-.6-2.95-1.83-1.83-8.37,7.57-16.74,15.14-25.11,22.7-1.24,1.12.6,2.95,1.83,1.83h0Z"/>
        <path class="cls-6" d="m137.29,199.44c17.55-17.11,35.09-34.22,52.64-51.33,1.2-1.17-.64-3-1.83-1.83-17.55,17.11-35.09,34.22-52.64,51.33-1.2,1.17.64,3,1.83,1.83h0Z"/>
      </g>
      <g>
        <g>
          <rect class="cls-1" x="216.61" y="39.84" width="1.13" height="72.44"/>
          <path class="cls-1" d="m221.77,112.27c0,2.54-2.06,4.6-4.6,4.6s-4.6-2.06-4.6-4.6,2.06-4.6,4.6-4.6,4.6,2.06,4.6,4.6Z"/>
          <path class="cls-1" d="m217.24,127.7c-.08,0-1.58-.01-2.67-1.11-.73-.73-1.1-1.74-1.1-3.01,0-.34.27-.61.61-.61s.61.27.61.61c0,.93.25,1.66.74,2.15.74.73,1.8.75,1.81.75,1.72,0,3.11-1.4,3.11-3.11s-1.4-3.11-3.11-3.11c-.34,0-.61-.27-.61-.61v-3.38c0-.34.27-.61.61-.61s.61.27.61.61v2.81c2.1.3,3.72,2.11,3.72,4.29,0,2.39-1.94,4.33-4.33,4.33h0Z"/>
        </g>
        <g>
          <path class="cls-1" d="m193.09,130.53c-.23-.04-.43-.23-.46-.47-.05-.31.17-.6.48-.64l24.89-3.67c.31-.05.6.17.64.48.05.31-.17.59-.48.64l-24.89,3.67c-.06,0-.12,0-.18,0Z"/>
          <path class="cls-1" d="m240.87,138.81c-.06,0-.11-.03-.16-.06l-22.89-11.95c-.28-.14-.38-.48-.24-.76.14-.28.48-.38.76-.24l22.89,11.95c.28.14.38.49.24.76-.12.22-.36.34-.6.29Z"/>
          <g>
            <rect class="cls-2" x="175.77" y="134.29" width="73.61" height="47.36" rx="5.87" ry="5.87" transform="translate(30.18 -34.06) rotate(9.86)"/>
            <path class="cls-1" d="m239.83,187.43c-.39,0-.78-.03-1.18-.1l-60.53-10.52c-1.81-.31-3.38-1.31-4.44-2.81-1.06-1.5-1.46-3.32-1.15-5.13l6.02-34.67c.65-3.73,4.21-6.24,7.94-5.59l60.53,10.52c1.81.31,3.38,1.31,4.44,2.81,1.06,1.5,1.46,3.32,1.15,5.13l-6.02,34.67c-.58,3.33-3.49,5.69-6.76,5.69Zm-54.51-57.36c-2.53,0-4.78,1.82-5.23,4.4l-6.02,34.67c-.24,1.4.07,2.81.89,3.97.82,1.16,2.04,1.93,3.43,2.18l60.53,10.52c2.88.51,5.64-1.44,6.14-4.32l6.02-34.67c.24-1.4-.07-2.81-.89-3.96-.82-1.16-2.04-1.93-3.43-2.18l-60.53-10.52c-.31-.05-.61-.08-.91-.08Z"/>
          </g>
          <g>
            <rect class="cls-3" x="178.99" y="137.95" width="67.17" height="40.03" rx="3.75" ry="3.75" transform="translate(30.18 -34.06) rotate(9.86)"/>
            <path class="cls-9" d="m239.08,183.61c-.27,0-.54-.02-.81-.07l-58.51-10.17c-1.23-.21-2.3-.89-3.02-1.91-.72-1.02-1-2.26-.78-3.49l5.52-31.78c.44-2.53,2.86-4.24,5.4-3.8l58.51,10.17c2.54.44,4.24,2.86,3.8,5.4l-5.52,31.78c-.21,1.23-.89,2.3-1.91,3.02-.79.56-1.72.85-2.68.85Zm-.54-1.6c.82.14,1.64-.04,2.32-.52.68-.48,1.13-1.19,1.27-2.01l5.52-31.78c.29-1.69-.84-3.3-2.53-3.6l-58.51-10.17c-1.69-.29-3.3.84-3.6,2.53l-5.52,31.78c-.14.82.04,1.64.52,2.32.48.68,1.19,1.13,2.01,1.27l58.51,10.17Z"/>
          </g>
          <g>
            <polygon class="cls-2" points="210.66 177.95 225.87 164.01 234.29 182.05 210.66 177.95"/>
            <path class="cls-1" d="m235.18,182.73l-25.65-4.46,16.51-15.13,9.14,19.59Zm-23.39-5.12l21.61,3.76-7.7-16.51-13.91,12.75Z"/>
          </g>
          <g>
            <polygon class="cls-2" points="180.58 172.72 207.55 148.01 222.47 180 180.58 172.72"/>
            <path class="cls-1" d="m223.36,180.68l-43.91-7.63,28.27-25.91,15.64,33.54Zm-41.66-8.29l39.87,6.93-14.21-30.45-25.67,23.53Z"/>
          </g>
          <g>
            <path class="cls-2" d="m239.61,152.69c-.36,2.05-2.31,3.43-4.36,3.07-2.05-.36-3.43-2.31-3.07-4.36s2.31-3.43,4.36-3.07c2.05.36,3.43,2.31,3.07,4.36Z"/>
            <path class="cls-1" d="m235.91,156.34c-.25,0-.5-.02-.74-.06-2.33-.41-3.9-2.63-3.49-4.96.2-1.13.82-2.11,1.76-2.77.94-.66,2.07-.92,3.2-.72,1.13.2,2.11.82,2.77,1.76.66.94.91,2.07.72,3.2-.2,1.13-.82,2.11-1.76,2.77-.73.51-1.58.78-2.46.78Zm-.02-7.54c-.66,0-1.31.2-1.87.59-.71.5-1.18,1.25-1.33,2.1-.15.86.05,1.72.54,2.43.5.71,1.25,1.18,2.1,1.33.85.15,1.72-.04,2.43-.54.71-.5,1.18-1.25,1.33-2.1h0c.31-1.77-.88-3.45-2.65-3.76-.19-.03-.38-.05-.56-.05Z"/>
          </g>
        </g>
        <rect class="cls-3" x="207.28" y="37.4" width="56.53" height="6.22"/>
        <g>
          <g>
            <g>
              <g>
                <path class="cls-1" d="m312.93,166h-18.77V.08h18.77v165.92Zm-16.91-1.86h15.05V1.94h-15.05v162.21Z"/>
                <g>
                  <path class="cls-1" d="m312.69,18.29h-18.3V0h18.3v18.29Zm-16.41-1.88h14.53V1.88h-14.53v14.53Z"/>
                  <rect class="cls-1" x="302.61" y="-2.46" width="1.88" height="23.21" transform="translate(82.44 217.32) rotate(-45)"/>
                  <rect class="cls-1" x="291.94" y="8.21" width="23.21" height="1.88" transform="translate(82.44 217.32) rotate(-45)"/>
                </g>
                <g>
                  <path class="cls-1" d="m312.69,34.71h-18.3v-18.29h18.3v18.29Zm-16.41-1.88h14.53v-14.53h-14.53v14.53Z"/>
                  <rect class="cls-1" x="302.61" y="13.95" width="1.88" height="23.21" transform="translate(70.83 222.13) rotate(-45)"/>
                  <rect class="cls-1" x="291.94" y="24.62" width="23.21" height="1.88" transform="translate(70.83 222.13) rotate(-45)"/>
                </g>
                <g>
                  <path class="cls-1" d="m312.69,51.12h-18.3v-18.3h18.3v18.3Zm-16.41-1.88h14.53v-14.53h-14.53v14.53Z"/>
                  <rect class="cls-1" x="302.61" y="30.37" width="1.88" height="23.21" transform="translate(59.22 226.93) rotate(-45)"/>
                  <rect class="cls-1" x="291.94" y="41.04" width="23.21" height="1.88" transform="translate(59.23 226.94) rotate(-45)"/>
                </g>
                <g>
                  <path class="cls-1" d="m312.69,67.54h-18.3v-18.29h18.3v18.29Zm-16.41-1.88h14.53v-14.53h-14.53v14.53Z"/>
                  <rect class="cls-1" x="302.61" y="46.78" width="1.88" height="23.21" transform="translate(47.62 231.74) rotate(-45)"/>
                  <rect class="cls-1" x="291.94" y="57.45" width="23.21" height="1.88" transform="translate(47.62 231.74) rotate(-45)"/>
                </g>
                <g>
                  <path class="cls-1" d="m312.69,83.95h-18.3v-18.29h18.3v18.29Zm-16.41-1.88h14.53v-14.53h-14.53v14.53Z"/>
                  <rect class="cls-1" x="302.61" y="63.2" width="1.88" height="23.21" transform="translate(36.01 236.55) rotate(-45)"/>
                  <rect class="cls-1" x="291.94" y="73.86" width="23.21" height="1.88" transform="translate(36.02 236.56) rotate(-45)"/>
                </g>
                <g>
                  <path class="cls-1" d="m312.69,100.37h-18.3v-18.3h18.3v18.3Zm-16.41-1.88h14.53v-14.53h-14.53v14.53Z"/>
                  <rect class="cls-1" x="302.61" y="79.61" width="1.88" height="23.21" transform="translate(24.4 241.36) rotate(-45)"/>
                  <rect class="cls-1" x="291.94" y="90.28" width="23.21" height="1.88" transform="translate(24.41 241.37) rotate(-45)"/>
                </g>
                <g>
                  <path class="cls-1" d="m312.69,116.78h-18.3v-18.29h18.3v18.29Zm-16.41-1.88h14.53v-14.53h-14.53v14.53Z"/>
                  <rect class="cls-1" x="302.61" y="96.03" width="1.88" height="23.21" transform="translate(12.8 246.16) rotate(-45)"/>
                  <rect class="cls-1" x="291.94" y="106.69" width="23.21" height="1.88" transform="translate(12.8 246.18) rotate(-45)"/>
                </g>
                <g>
                  <path class="cls-1" d="m312.69,133.19h-18.3v-18.29h18.3v18.29Zm-16.41-1.88h14.53v-14.53h-14.53v14.53Z"/>
                  <rect class="cls-1" x="302.61" y="112.44" width="1.88" height="23.21" transform="translate(1.19 250.97) rotate(-45)"/>
                  <rect class="cls-1" x="291.94" y="123.11" width="23.21" height="1.88" transform="translate(1.2 250.98) rotate(-45)"/>
                </g>
                <g>
                  <path class="cls-1" d="m312.69,149.61h-18.3v-18.29h18.3v18.29Zm-16.41-1.88h14.53v-14.53h-14.53v14.53Z"/>
                  <rect class="cls-1" x="302.61" y="128.85" width="1.88" height="23.21" transform="translate(-10.41 255.78) rotate(-45)"/>
                  <rect class="cls-1" x="291.94" y="139.52" width="23.21" height="1.88" transform="translate(-10.41 255.79) rotate(-45)"/>
                </g>
                <g>
                  <path class="cls-1" d="m312.69,166.02h-18.3v-18.29h18.3v18.29Zm-16.41-1.88h14.53v-14.53h-14.53v14.53Z"/>
                  <rect class="cls-1" x="302.61" y="145.27" width="1.88" height="23.21" transform="translate(-22.02 260.58) rotate(-45)"/>
                  <rect class="cls-1" x="291.94" y="155.94" width="23.21" height="1.88" transform="translate(-22.04 260.53) rotate(-44.99)"/>
                </g>
              </g>
              <g>
                <g>
                  <path class="cls-1" d="m345.35,34.46h-18.29v-18.3h18.29v18.3Zm-16.41-1.88h14.53v-14.53h-14.53v14.53Z"/>
                  <rect class="cls-1" x="324.6" y="24.37" width="23.21" height="1.88" transform="translate(80.61 245.2) rotate(-45.01)"/>
                  <rect class="cls-1" x="335.27" y="13.71" width="1.88" height="23.21" transform="translate(80.57 245.15) rotate(-45)"/>
                </g>
                <g>
                  <path class="cls-1" d="m328.94,34.46h-18.29v-18.3h18.29v18.3Zm-16.41-1.88h14.53v-14.53h-14.53v14.53Z"/>
                  <rect class="cls-1" x="308.19" y="24.37" width="23.21" height="1.88" transform="translate(75.8 233.59) rotate(-45.01)"/>
                  <rect class="cls-1" x="318.85" y="13.71" width="1.88" height="23.21" transform="translate(75.76 233.54) rotate(-45)"/>
                </g>
                <path class="cls-1" d="m312.53,34.46h-18.29v-18.3h18.29v18.3Zm-16.41-1.88h14.53v-14.53h-14.53v14.53Z"/>
                <g>
                  <path class="cls-1" d="m296.11,34.46h-18.29v-18.3h18.29v18.3Zm-16.41-1.88h14.53v-14.53h-14.53v14.53Z"/>
                  <rect class="cls-1" x="275.36" y="24.37" width="23.21" height="1.88" transform="translate(66.15 210.33) rotate(-45)"/>
                  <rect class="cls-1" x="286.02" y="13.71" width="1.88" height="23.21" transform="translate(66.15 210.33) rotate(-45)"/>
                </g>
                <g>
                  <path class="cls-1" d="m279.7,34.46h-18.29v-18.3h18.29v18.3Zm-16.41-1.88h14.53v-14.53h-14.53v14.53Z"/>
                  <rect class="cls-1" x="258.94" y="24.37" width="23.21" height="1.88" transform="translate(61.34 198.72) rotate(-45)"/>
                  <rect class="cls-1" x="269.61" y="13.71" width="1.88" height="23.21" transform="translate(61.34 198.72) rotate(-45)"/>
                </g>
                <g>
                  <path class="cls-1" d="m263.28,34.46h-18.29v-18.3h18.29v18.3Zm-16.41-1.88h14.53v-14.53h-14.53v14.53Z"/>
                  <path class="cls-1" d="m245.93,34.46h-16.41c-.38,0-.72-.23-.87-.58-.15-.35-.06-.76.2-1.02l16.41-16.41,1.33,1.33-14.81,14.81h13.75l16.14-16.14,1.33,1.33-16.41,16.41c-.18.18-.42.28-.66.28Z"/>
                  <rect class="cls-1" x="253.2" y="13.71" width="1.88" height="23.21" transform="translate(56.53 187.11) rotate(-45)"/>
                </g>
              </g>
            </g>
            <g>
              <path class="cls-1" d="m312.97,184.3h-18.81v-18.29h18.81v18.29Zm-16.87-1.88h14.94v-14.53h-14.94v14.53Z"/>
              <polygon class="cls-1" points="311.32 184.02 294.45 167.61 295.81 166.28 312.69 182.69 311.32 184.02"/>
              <polygon class="cls-1" points="295.81 184.02 294.45 182.69 311.32 166.28 312.69 167.61 295.81 184.02"/>
            </g>
            <g>
              <path class="cls-1" d="m312.97,249.95h-18.81v-18.29h18.81v18.29Zm-16.87-1.88h14.94v-14.53h-14.94v14.53Z"/>
              <polygon class="cls-1" points="311.32 249.68 294.45 233.26 295.81 231.94 312.69 248.35 311.32 249.68"/>
              <polygon class="cls-1" points="295.81 249.68 294.45 248.35 311.32 231.94 312.69 233.26 295.81 249.68"/>
            </g>
          </g>
          <g>
            <path class="cls-1" d="m312.97,199.16h-18.81v-18.29h18.81v18.29Zm-16.87-1.88h14.94v-14.53h-14.94v14.53Z"/>
            <polygon class="cls-1" points="311.32 198.88 294.45 182.47 295.81 181.14 312.69 197.55 311.32 198.88"/>
            <polygon class="cls-1" points="295.81 198.88 294.45 197.55 311.32 181.14 312.69 182.47 295.81 198.88"/>
          </g>
          <g>
            <path class="cls-1" d="m312.97,215.57h-18.81v-18.29h18.81v18.29Zm-16.87-1.88h14.94v-14.53h-14.94v14.53Z"/>
            <polygon class="cls-1" points="311.32 215.3 294.45 198.88 295.81 197.55 312.69 213.97 311.32 215.3"/>
            <polygon class="cls-1" points="295.81 215.3 294.45 213.97 311.32 197.55 312.69 198.88 295.81 215.3"/>
          </g>
          <g>
            <path class="cls-1" d="m312.97,231.98h-18.81v-18.29h18.81v18.29Zm-16.87-1.88h14.94v-14.53h-14.94v14.53Z"/>
            <polygon class="cls-1" points="311.32 231.71 294.45 215.3 295.81 213.97 312.69 230.38 311.32 231.71"/>
            <polygon class="cls-1" points="295.81 231.71 294.45 230.38 311.32 213.97 312.69 215.3 295.81 231.71"/>
          </g>
        </g>
      </g>
      <path class="cls-9" d="m103.1,99.55c2,0,2.01-3.11,0-3.11s-2.01,3.11,0,3.11h0Z"/>
      <path class="cls-9" d="m271.79,67.06c2,0,2.01-3.11,0-3.11s-2.01,3.11,0,3.11h0Z"/>
      <path class="cls-9" d="m341.62,178.37h.69c.81,0,1.59-.72,1.56-1.56-.04-.84-.68-1.56-1.56-1.56h-.69c-.81,0-1.59.72-1.56,1.56.04.84.68,1.56,1.56,1.56h0Z"/>
      <path class="cls-9" d="m41.56,201.19c2,0,2.01-3.11,0-3.11s-2.01,3.11,0,3.11h0Z"/>
      <path class="cls-9" d="m190.21,51.85c2,0,2.01-3.11,0-3.11s-2.01,3.11,0,3.11h0Z"/>
    </g>
  </g>
</svg>